<?xml version="1.0" encoding="UTF-8" standalone="no"?>
<!-- Generator: Adobe Illustrator 16.0.0, SVG Export Plug-In . SVG Version: 6.00 Build 0)  -->

<svg
   xmlns:dc="http://purl.org/dc/elements/1.1/"
   xmlns:cc="http://creativecommons.org/ns#"
   xmlns:rdf="http://www.w3.org/1999/02/22-rdf-syntax-ns#"
   xmlns:svg="http://www.w3.org/2000/svg"
   xmlns="http://www.w3.org/2000/svg"
   xmlns:sodipodi="http://sodipodi.sourceforge.net/DTD/sodipodi-0.dtd"
   xmlns:inkscape="http://www.inkscape.org/namespaces/inkscape"
   version="1.2"
   id="Layer_1"
   x="0px"
   y="0px"
   width="108px"
   height="180px"
   viewBox="0 0 108 180"
   xml:space="preserve"
   inkscape:version="0.91 r13725"
   sodipodi:docname="svg.schematic.WeMos-D1-R2_schematic.svg"><metadata
     id="metadata201"><rdf:RDF><cc:Work
         rdf:about=""><dc:format>image/svg+xml</dc:format><dc:type
           rdf:resource="http://purl.org/dc/dcmitype/StillImage" /><dc:title></dc:title></cc:Work></rdf:RDF></metadata><defs
     id="defs199" /><sodipodi:namedview
     pagecolor="#ffffff"
     bordercolor="#666666"
     borderopacity="1"
     objecttolerance="10"
     gridtolerance="10"
     guidetolerance="10"
     inkscape:pageopacity="0"
     inkscape:pageshadow="2"
     inkscape:window-width="1871"
     inkscape:window-height="1056"
     id="namedview197"
     showgrid="false"
     inkscape:zoom="4.581192"
     inkscape:cx="84.471867"
     inkscape:cy="99.61322"
     inkscape:window-x="49"
     inkscape:window-y="24"
     inkscape:window-maximized="1"
     inkscape:current-layer="Layer_1" /><rect
     style="fill:#ffffff;stroke:#000000;stroke-width:0.3175;stroke-linecap:round"
     id="rect4"
     height="150.3"
     width="78.300003"
     y="14.85"
     x="14.85" /><line
     style="fill:none;stroke:#787878;stroke-width:0.24690001;stroke-linecap:round"
     y2="28.799999"
     x2="107.65"
     y1="28.799999"
     x1="93.25"
     id="connector61pin" /><line
     style="fill:none;stroke:#787878;stroke-width:0.24690001;stroke-linecap:round"
     y2="36"
     x2="107.65"
     y1="36"
     x1="93.25"
     id="connector62pin" /><rect
     style="fill:none"
     height="0.69999999"
     width="0.699"
     y="186.11993"
     x="81.493042"
     id="connector62terminal" /><line
     style="fill:none;stroke:#787878;stroke-width:0.24690001;stroke-linecap:round"
     y2="43.200001"
     x2="107.65"
     y1="43.200001"
     x1="93.25"
     id="connector63pin" /><rect
     style="fill:#000000"
     height="0.69999999"
     width="0.699"
     y="42.849998"
     x="107.65"
     id="connector63terminal" /><line
     style="fill:none;stroke:#787878;stroke-width:0.24690001;stroke-linecap:round"
     y2="50.400002"
     x2="107.65"
     y1="50.400002"
     x1="93.25"
     id="connector64pin" /><rect
     style="fill:#000000"
     height="0.69999999"
     width="0.699"
     y="50.049999"
     x="107.65"
     id="connector64terminal" /><line
     style="fill:none;stroke:#787878;stroke-width:0.24690001;stroke-linecap:round"
     y2="57.599998"
     x2="107.65"
     y1="57.599998"
     x1="93.25"
     id="connector65pin" /><rect
     style="fill:#000000"
     height="0.69999999"
     width="0.699"
     y="57.25"
     x="107.65"
     id="connector65terminal" /><line
     style="fill:none;stroke:#787878;stroke-width:0.24690001;stroke-linecap:round"
     y2="64.800003"
     x2="107.65"
     y1="64.800003"
     x1="93.25"
     id="connector66pin" /><rect
     style="fill:#000000"
     height="0.69999999"
     width="0.699"
     y="64.449997"
     x="107.65"
     id="connector66terminal" /><line
     style="fill:none;stroke:#787878;stroke-width:0.24690001;stroke-linecap:round"
     y2="72"
     x2="107.65"
     y1="72"
     x1="93.25"
     id="connector67pin" /><rect
     style="fill:#000000"
     height="0.69999999"
     width="0.699"
     y="71.650002"
     x="107.65"
     id="connector67terminal" /><line
     style="fill:none;stroke:#787878;stroke-width:0.24690001;stroke-linecap:round"
     y2="79.199997"
     x2="107.65"
     y1="79.199997"
     x1="93.25"
     id="connector68pin" /><rect
     style="fill:#000000"
     height="0.69999999"
     width="0.699"
     y="78.849998"
     x="107.65"
     id="connector68terminal" /><line
     style="fill:none;stroke:#787878;stroke-width:0.24690001;stroke-linecap:round"
     y2="86.400002"
     x2="107.65"
     y1="86.400002"
     x1="93.25"
     id="connector51pin" /><rect
     style="fill:#000000"
     height="0.69999999"
     width="0.699"
     y="86.050003"
     x="107.65"
     id="connector51terminal" /><line
     style="fill:none;stroke:#787878;stroke-width:0.24690001;stroke-linecap:round"
     y2="93.599998"
     x2="107.65"
     y1="93.599998"
     x1="93.25"
     id="connector52pin" /><rect
     style="fill:#000000"
     height="0.699"
     width="0.699"
     y="93.25"
     x="107.65"
     id="connector52terminal" /><line
     style="fill:none;stroke:#787878;stroke-width:0.24690001;stroke-linecap:round"
     y2="100.8"
     x2="107.65"
     y1="100.8"
     x1="93.25"
     id="connector53pin" /><rect
     style="fill:#000000"
     height="0.70099998"
     width="0.699"
     y="100.449"
     x="107.65"
     id="connector53terminal" /><line
     style="fill:none;stroke:#787878;stroke-width:0.24690001;stroke-linecap:round"
     y2="108"
     x2="107.65"
     y1="108"
     x1="93.25"
     id="connector54pin" /><rect
     style="fill:#000000"
     height="0.699"
     width="0.699"
     y="107.65"
     x="107.65"
     id="connector54terminal" /><line
     style="fill:none;stroke:#787878;stroke-width:0.24690001;stroke-linecap:round"
     y2="115.2"
     x2="107.65"
     y1="115.2"
     x1="93.25"
     id="connector55pin" /><rect
     style="fill:#000000"
     height="0.69999999"
     width="0.699"
     y="114.85"
     x="107.65"
     id="connector55terminal" /><line
     style="fill:none"
     y2="122.4"
     x2="107.65"
     y1="122.4"
     x1="93.25"
     id="connector41pin" /><rect
     style="fill:#000000"
     height="0.69999999"
     width="0.699"
     y="122.05"
     x="107.65"
     id="connector41terminal" /><line
     style="fill:none;stroke:#787878;stroke-width:0.24690001;stroke-linecap:round"
     y2="122.4"
     x2="107.65"
     y1="122.4"
     x1="93.25"
     id="connector56pin" /><rect
     style="fill:#000000"
     height="0.69999999"
     width="0.699"
     y="122.05"
     x="107.65"
     id="connector56terminal" /><line
     style="fill:none"
     y2="24.755108"
     x2="14.480341"
     y1="24.755108"
     x1="0.080340616"
     id="connector43pin" /><rect
     style="fill:#000000"
     height="0.69999999"
     width="0.69999999"
     y="26.077154"
     x="-0.23704478"
     id="connector85terminal" /><rect
     style="fill:#000000"
     height="0.69999999"
     width="0.69999999"
     y="33.277153"
     x="-0.291704"
     id="connector49terminal" /><rect
     style="fill:#000000"
     height="0.69999999"
     width="0.69999999"
     y="40.531811"
     x="-0.40102246"
     id="connector58terminal" /><rect
     style="fill:#000000"
     height="0.69999999"
     width="0.69999999"
     y="47.622494"
     x="-0.34636325"
     id="connector84terminal" /><rect
     style="fill:#000000"
     height="0.69999999"
     width="0.69999999"
     y="62.131809"
     x="-0.40102246"
     id="connector0terminal" /><rect
     style="fill:#000000"
     height="0.69999999"
     width="0.69999999"
     y="69.277153"
     x="-0.40102246"
     id="connector1terminal" /><rect
     style="fill:#000000"
     height="0.69999999"
     width="0.69999999"
     y="76.367836"
     x="-0.34636325"
     id="connector2terminal" /><rect
     style="fill:#000000"
     height="0.69999999"
     width="0.69999999"
     y="83.731819"
     x="-0.34636325"
     id="connector3terminal" /><line
     style="fill:none"
     y2="89.555107"
     x2="14.480341"
     y1="89.555107"
     x1="0.080340616"
     id="connector39pin" /><text
     style="font-size:3.5px;font-family:DroidSans;fill:#8c8c8c"
     id="text117"
     font-size="3.5"
     x="23.2451"
     y="94.300797" />
<line
     style="fill:none"
     y2="89.555107"
     x2="14.480341"
     y1="89.555107"
     x1="0.080340616"
     id="connector4pin" /><rect
     style="fill:#000000"
     height="0.699"
     width="0.69999999"
     y="90.767838"
     x="-0.45568168"
     id="connector59terminal" /><line
     style="fill:none"
     y2="96.755112"
     x2="14.480341"
     y1="96.755112"
     x1="0.080340616"
     id="connector5pin" /><rect
     style="fill:#000000"
     height="0.70099998"
     width="0.69999999"
     y="98.076149"
     x="-0.45568168"
     id="connector60terminal" /><line
     style="fill:none;stroke:#787878;stroke-width:0.24690001;stroke-linecap:round"
     y2="14.480341"
     x2="43.288864"
     y1="0.08034049"
     x1="43.288864"
     id="connector86pin" /><line
     style="fill:none;stroke:#787878;stroke-width:0.24690001;stroke-linecap:round"
     y2="14.480341"
     x2="49.768749"
     y1="0.08034049"
     x1="49.768749"
     id="connector87pin" /><line
     style="fill:none;stroke:#787878;stroke-width:0.24690001;stroke-linecap:round"
     y2="14.480341"
     x2="56.248634"
     y1="0.08034049"
     x1="56.248634"
     id="connector90pin" /><text
     style="font-size:4.25px;font-family:DroidSans"
     id="text189"
     font-size="4.25"
     x="50.141602"
     y="94.984398" />
<text
     style="font-size:4.25px;font-family:DroidSans"
     id="text193"
     font-size="4.25"
     x="54.1031"
     y="94.984398" />
<text
     style="font-size:4.25px;font-family:DroidSans"
     id="text195"
     font-size="4.25"
     x="56.308601"
     y="94.984398" />
<line
     id="line3705"
     x1="93.25"
     y1="129.2"
     x2="107.65"
     y2="129.2"
     style="fill:none;stroke:#787878;stroke-width:0.24690001;stroke-linecap:round" /><rect
     id="rect3709"
     x="107.65"
     y="128.85001"
     width="0.699"
     height="0.69999999"
     style="fill:#000000" /><line
     id="line3711"
     x1="93.25"
     y1="136.39999"
     x2="107.65"
     y2="136.39999"
     style="fill:none" /><rect
     id="rect3713"
     x="107.65"
     y="136.05"
     width="0.699"
     height="0.69999999"
     style="fill:#000000" /><line
     id="line3715"
     x1="93.25"
     y1="136.39999"
     x2="107.65"
     y2="136.39999"
     style="fill:none;stroke:#787878;stroke-width:0.24690001;stroke-linecap:round" /><rect
     id="rect3719"
     x="107.65"
     y="136.05"
     width="0.699"
     height="0.69999999"
     style="fill:#000000" /><line
     style="fill:none;stroke:#787878;stroke-width:0.24690001;stroke-linecap:round"
     y2="26.382084"
     x2="14.77717"
     y1="26.382084"
     x1="0.37716833"
     id="connector61pin-2" /><line
     style="fill:none;stroke:#787878;stroke-width:0.24690001;stroke-linecap:round"
     y2="33.582085"
     x2="14.77717"
     y1="33.582085"
     x1="0.37716833"
     id="connector62pin-2" /><line
     style="fill:none;stroke:#787878;stroke-width:0.24690001;stroke-linecap:round"
     y2="40.782082"
     x2="14.77717"
     y1="40.782082"
     x1="0.37716833"
     id="connector63pin-9" /><line
     style="fill:none;stroke:#787878;stroke-width:0.24690001;stroke-linecap:round"
     y2="47.982086"
     x2="14.77717"
     y1="47.982086"
     x1="0.37716833"
     id="connector64pin-3" /><line
     style="fill:none;stroke:#787878;stroke-width:0.24690001;stroke-linecap:round"
     y2="55.182083"
     x2="14.77717"
     y1="55.182083"
     x1="0.37716833"
     id="connector65pin-1" /><line
     style="fill:none;stroke:#787878;stroke-width:0.24690001;stroke-linecap:round"
     y2="62.382088"
     x2="14.77717"
     y1="62.382088"
     x1="0.37716833"
     id="connector66pin-2" /><line
     style="fill:none;stroke:#787878;stroke-width:0.24690001;stroke-linecap:round"
     y2="69.582085"
     x2="14.77717"
     y1="69.582085"
     x1="0.37716833"
     id="connector67pin-9" /><line
     style="fill:none;stroke:#787878;stroke-width:0.24690001;stroke-linecap:round"
     y2="76.782082"
     x2="14.77717"
     y1="76.782082"
     x1="0.37716833"
     id="connector68pin-4" /><line
     style="fill:none;stroke:#787878;stroke-width:0.24690001;stroke-linecap:round"
     y2="83.982086"
     x2="14.77717"
     y1="83.982086"
     x1="0.37716833"
     id="connector51pin-0" /><line
     style="fill:none;stroke:#787878;stroke-width:0.24690001;stroke-linecap:round"
     y2="91.182076"
     x2="14.77717"
     y1="91.182076"
     x1="0.37716833"
     id="connector52pin-4" /><line
     style="fill:none;stroke:#787878;stroke-width:0.24690001;stroke-linecap:round"
     y2="98.382088"
     x2="14.77717"
     y1="98.382088"
     x1="0.37716833"
     id="connector53pin-7" /><line
     id="line3705-0"
     x1="92.843628"
     y1="143.2319"
     x2="107.24363"
     y2="143.2319"
     style="fill:none;stroke:#787878;stroke-width:0.24690001;stroke-linecap:round" /><line
     id="line3715-6"
     x1="92.843628"
     y1="150.4319"
     x2="107.24363"
     y2="150.4319"
     style="fill:none;stroke:#787878;stroke-width:0.24690001;stroke-linecap:round" /><line
     style="fill:none;stroke:#787878;stroke-width:0.24690001;stroke-linecap:round"
     y2="14.480341"
     x2="62.728523"
     y1="0.08034049"
     x1="62.728523"
     id="connector90pin-4" /><g
     style="font-style:normal;font-weight:normal;font-size:10px;line-height:125%;font-family:sans-serif;letter-spacing:0px;word-spacing:0px;fill:#000000;fill-opacity:1;stroke:none;stroke-width:1px;stroke-linecap:butt;stroke-linejoin:miter;stroke-opacity:1"
     id="text22083"><path
       d="m 17.204105,25.377428 0.369873,0 0,2.733765 -0.369873,0 0,-2.733765 z"
       style="font-size:3.75px"
       id="path24224" /><path
       d="m 19.419682,25.628283 q -0.402832,0 -0.64087,0.300293 -0.236206,0.300292 -0.236206,0.818481 0,0.516357 0.236206,0.81665 0.238038,0.300293 0.64087,0.300293 0.402832,0 0.637207,-0.300293 0.236206,-0.300293 0.236206,-0.81665 0,-0.518189 -0.236206,-0.818481 -0.234375,-0.300293 -0.637207,-0.300293 z m 0,-0.300293 q 0.574951,0 0.919189,0.386352 0.344238,0.384522 0.344238,1.032715 0,0.646362 -0.344238,1.032715 -0.344238,0.384521 -0.919189,0.384521 -0.576783,0 -0.922852,-0.384521 -0.344238,-0.384522 -0.344238,-1.032715 0,-0.648193 0.344238,-1.032715 0.346069,-0.386352 0.922852,-0.386352 z"
       style="font-size:3.75px"
       id="path24226" /><path
       d="m 22.558109,26.829454 q 0.119019,0.04028 0.230713,0.17212 0.113526,0.131836 0.227051,0.362548 l 0.375366,0.747071 -0.397339,0 -0.349731,-0.701294 q -0.135498,-0.274658 -0.263672,-0.36438 -0.126343,-0.08972 -0.346069,-0.08972 l -0.402832,0 0,1.155396 -0.369873,0 0,-2.733765 0.834961,0 q 0.46875,0 0.699462,0.195923 0.230713,0.195923 0.230713,0.591431 0,0.258178 -0.120849,0.428466 -0.119019,0.170288 -0.347901,0.236206 z m -0.926513,-1.148071 0,0.970459 0.465088,0 q 0.267333,0 0.402832,-0.122681 0.137329,-0.124511 0.137329,-0.364379 0,-0.239869 -0.137329,-0.360718 -0.135499,-0.122681 -0.402832,-0.122681 l -0.465088,0 z"
       style="font-size:3.75px"
       id="path24228" /><path
       d="m 23.869144,25.377428 1.728516,0 0,0.311279 -1.358643,0 0,0.809327 1.30188,0 0,0.311279 -1.30188,0 0,0.9906 1.391602,0 0,0.31128 -1.761475,0 0,-2.733765 z"
       style="font-size:3.75px"
       id="path24230" /><path
       d="m 26.242191,25.377428 1.571045,0 0,0.311279 -1.201172,0 0,0.805664 1.083985,0 0,0.31128 -1.083985,0 0,1.305542 -0.369873,0 0,-2.733765 z"
       style="font-size:3.75px"
       id="path24232" /></g><g
     style="font-style:normal;font-weight:normal;font-size:10px;line-height:125%;font-family:sans-serif;letter-spacing:0px;word-spacing:0px;fill:#000000;fill-opacity:1;stroke:none;stroke-width:1px;stroke-linecap:butt;stroke-linejoin:miter;stroke-opacity:1"
     id="text22083-3"><path
       d="m 17.204105,32.540981 0.369873,0 0,2.733765 -0.369873,0 0,-2.733765 z"
       style="font-size:3.75px"
       id="path24213" /><path
       d="m 19.419682,32.791836 q -0.402832,0 -0.64087,0.300293 -0.236206,0.300293 -0.236206,0.818481 0,0.516358 0.236206,0.816651 0.238038,0.300293 0.64087,0.300293 0.402832,0 0.637207,-0.300293 0.236206,-0.300293 0.236206,-0.816651 0,-0.518188 -0.236206,-0.818481 -0.234375,-0.300293 -0.637207,-0.300293 z m 0,-0.300293 q 0.574951,0 0.919189,0.386352 0.344238,0.384522 0.344238,1.032715 0,0.646363 -0.344238,1.032715 -0.344238,0.384522 -0.919189,0.384522 -0.576783,0 -0.922852,-0.384522 -0.344238,-0.384521 -0.344238,-1.032715 0,-0.648193 0.344238,-1.032715 0.346069,-0.386352 0.922852,-0.386352 z"
       style="font-size:3.75px"
       id="path24215" /><path
       d="m 22.558109,33.993008 q 0.119019,0.04028 0.230713,0.172119 0.113526,0.131836 0.227051,0.362549 l 0.375366,0.74707 -0.397339,0 -0.349731,-0.701294 q -0.135498,-0.274658 -0.263672,-0.36438 -0.126343,-0.08972 -0.346069,-0.08972 l -0.402832,0 0,1.155396 -0.369873,0 0,-2.733765 0.834961,0 q 0.46875,0 0.699462,0.195923 0.230713,0.195923 0.230713,0.591431 0,0.258179 -0.120849,0.428467 -0.119019,0.170288 -0.347901,0.236206 z m -0.926513,-1.148072 0,0.970459 0.465088,0 q 0.267333,0 0.402832,-0.12268 0.137329,-0.124512 0.137329,-0.36438 0,-0.239868 -0.137329,-0.360718 -0.135499,-0.122681 -0.402832,-0.122681 l -0.465088,0 z"
       style="font-size:3.75px"
       id="path24217" /><path
       d="m 23.869144,32.540981 1.728516,0 0,0.31128 -1.358643,0 0,0.809326 1.30188,0 0,0.311279 -1.30188,0 0,0.990601 1.391602,0 0,0.311279 -1.761475,0 0,-2.733765 z"
       style="font-size:3.75px"
       id="path24219" /><path
       d="m 26.242191,32.540981 1.571045,0 0,0.31128 -1.201172,0 0,0.805664 1.083985,0 0,0.311279 -1.083985,0 0,1.305542 -0.369873,0 0,-2.733765 z"
       style="font-size:3.75px"
       id="path24221" /></g><g
     style="font-style:normal;font-weight:normal;font-size:10px;line-height:125%;font-family:sans-serif;letter-spacing:0px;word-spacing:0px;fill:#000000;fill-opacity:1;stroke:none;stroke-width:1px;stroke-linecap:butt;stroke-linejoin:miter;stroke-opacity:1"
     id="text22083-4"><path
       d="m 18.500492,41.156559 q 0.119019,0.04028 0.230713,0.172119 0.113525,0.131836 0.227051,0.362549 l 0.375366,0.74707 -0.397339,0 -0.349731,-0.701294 q -0.135498,-0.274658 -0.263672,-0.36438 -0.126343,-0.08972 -0.34607,-0.08972 l -0.402832,0 0,1.155395 -0.369873,0 0,-2.733764 0.834961,0 q 0.46875,0 0.699463,0.195922 0.230713,0.195923 0.230713,0.591431 0,0.258179 -0.12085,0.428467 -0.119018,0.170288 -0.3479,0.236206 z m -0.926514,-1.148071 0,0.970459 0.465088,0 q 0.267334,0 0.402832,-0.122681 0.137329,-0.124512 0.137329,-0.36438 0,-0.239868 -0.137329,-0.360718 -0.135498,-0.12268 -0.402832,-0.12268 l -0.465088,0 z"
       style="font-size:3.75px"
       id="path24206" /><path
       d="m 21.450321,39.794254 0,0.360718 q -0.210571,-0.100708 -0.397339,-0.150146 -0.186767,-0.04944 -0.360717,-0.04944 -0.302124,0 -0.466919,0.117188 -0.162964,0.117187 -0.162964,0.333252 0,0.181274 0.108032,0.274658 0.109863,0.09155 0.413818,0.148315 l 0.223389,0.04578 q 0.413818,0.07873 0.609741,0.27832 0.197754,0.197754 0.197754,0.531006 0,0.397339 -0.267334,0.602417 -0.265503,0.205078 -0.780029,0.205078 -0.194092,0 -0.413819,-0.04394 -0.217895,-0.04395 -0.45227,-0.130005 l 0,-0.38086 q 0.22522,0.126343 0.441284,0.19043 0.216065,0.06409 0.424805,0.06409 0.316772,0 0.488891,-0.124512 0.17212,-0.124512 0.17212,-0.355224 0,-0.201416 -0.124512,-0.314942 -0.122681,-0.113525 -0.404663,-0.170288 l -0.22522,-0.04395 q -0.413818,-0.0824 -0.598755,-0.258179 -0.184936,-0.175781 -0.184936,-0.488892 0,-0.362548 0.254516,-0.571289 0.256348,-0.20874 0.704956,-0.20874 0.192261,0 0.391846,0.03479 0.199585,0.03479 0.408325,0.10437 z"
       style="font-size:3.75px"
       id="path24208" /><path
       d="m 21.81287,39.704533 2.312622,0 0,0.311279 -0.970459,0 0,2.422485 -0.371704,0 0,-2.422485 -0.970459,0 0,-0.311279 z"
       style="font-size:3.75px"
       id="path24210" /></g><g
     style="font-style:normal;font-weight:normal;font-size:10px;line-height:125%;font-family:sans-serif;letter-spacing:0px;word-spacing:0px;fill:#000000;fill-opacity:1;stroke:none;stroke-width:1px;stroke-linecap:butt;stroke-linejoin:miter;stroke-opacity:1"
     id="text22083-1"><path
       d="m 18.440067,48.127834 q 0.265503,0.05676 0.413819,0.236206 0.150146,0.179444 0.150146,0.443116 0,0.404663 -0.27832,0.62622 -0.27832,0.221558 -0.791016,0.221558 -0.172119,0 -0.355224,-0.03479 -0.181275,-0.03296 -0.375367,-0.100708 l 0,-0.357056 q 0.153809,0.08972 0.336914,0.135498 0.183106,0.04578 0.382691,0.04578 0.3479,0 0.529175,-0.137329 0.183105,-0.13733 0.183105,-0.39917 0,-0.2417 -0.170288,-0.377198 -0.168457,-0.137329 -0.470581,-0.137329 l -0.318604,0 0,-0.303955 0.333252,0 q 0.272828,0 0.417481,-0.108032 0.144653,-0.109863 0.144653,-0.314941 0,-0.210572 -0.150146,-0.322266 -0.148316,-0.113525 -0.426636,-0.113525 -0.151978,0 -0.325928,0.03296 -0.17395,0.03296 -0.38269,0.10254 l 0,-0.32959 q 0.210571,-0.05859 0.393677,-0.08789 0.184936,-0.0293 0.3479,-0.0293 0.421143,0 0.666504,0.192261 0.245361,0.19043 0.245361,0.516357 0,0.227051 -0.130005,0.384522 -0.130005,0.15564 -0.369873,0.216064 z"
       style="font-size:3.75px"
       id="path24199" /><path
       d="m 20.379154,49.601833 -1.043701,-2.733764 0.386353,0 0.866088,2.301635 0.86792,-2.301635 0.384522,0 -1.04187,2.733764 -0.419312,0 z"
       style="font-size:3.75px"
       id="path24201" /><path
       d="m 23.391239,48.127834 q 0.265503,0.05676 0.413819,0.236206 0.150146,0.179444 0.150146,0.443116 0,0.404663 -0.27832,0.62622 -0.278321,0.221558 -0.791016,0.221558 -0.172119,0 -0.355225,-0.03479 -0.181274,-0.03296 -0.375366,-0.100708 l 0,-0.357056 q 0.153809,0.08972 0.336914,0.135498 0.183106,0.04578 0.382691,0.04578 0.3479,0 0.529175,-0.137329 0.183105,-0.13733 0.183105,-0.39917 0,-0.2417 -0.170288,-0.377198 -0.168457,-0.137329 -0.470581,-0.137329 l -0.318604,0 0,-0.303955 0.333252,0 q 0.272827,0 0.417481,-0.108032 0.144653,-0.109863 0.144653,-0.314941 0,-0.210572 -0.150146,-0.322266 -0.148316,-0.113525 -0.426636,-0.113525 -0.151978,0 -0.325928,0.03296 -0.17395,0.03296 -0.38269,0.10254 l 0,-0.32959 q 0.210571,-0.05859 0.393676,-0.08789 0.184937,-0.0293 0.347901,-0.0293 0.421142,0 0.666504,0.192261 0.245361,0.19043 0.245361,0.516357 0,0.227051 -0.130005,0.384522 -0.130005,0.15564 -0.369873,0.216064 z"
       style="font-size:3.75px"
       id="path24203" /></g><g
     style="font-style:normal;font-weight:normal;font-size:10px;line-height:125%;font-family:sans-serif;letter-spacing:0px;word-spacing:0px;fill:#000000;fill-opacity:1;stroke:none;stroke-width:1px;stroke-linecap:butt;stroke-linejoin:miter;stroke-opacity:1"
     id="text22083-3-1"><path
       d="m 17.319462,54.006901 1.452026,0 0,0.311279 -1.113281,0 0,0.670166 q 0.08057,-0.02747 0.161133,-0.04028 0.08057,-0.01465 0.161133,-0.01465 0.457763,0 0.725097,0.250855 0.267334,0.250854 0.267334,0.679321 0,0.441284 -0.274658,0.686646 -0.274658,0.24353 -0.774536,0.24353 -0.172119,0 -0.351563,-0.0293 -0.177612,-0.0293 -0.368042,-0.08789 l 0,-0.371705 q 0.164795,0.08972 0.340577,0.133667 0.175781,0.04395 0.371704,0.04395 0.316772,0 0.501709,-0.166626 0.184936,-0.166626 0.184936,-0.452271 0,-0.285644 -0.184936,-0.45227 -0.184937,-0.166626 -0.501709,-0.166626 -0.148316,0 -0.296631,0.03296 -0.146485,0.03296 -0.300293,0.102539 l 0,-1.373291 z"
       style="font-size:3.75px"
       id="path24194" /><path
       d="m 20.375492,56.740665 -1.043701,-2.733764 0.386352,0 0.866089,2.301636 0.86792,-2.301636 0.384522,0 -1.04187,2.733764 -0.419312,0 z"
       style="font-size:3.75px"
       id="path24196" /></g><g
     style="font-style:normal;font-weight:normal;font-size:10px;line-height:125%;font-family:sans-serif;letter-spacing:0px;word-spacing:0px;fill:#000000;fill-opacity:1;stroke:none;stroke-width:1px;stroke-linecap:butt;stroke-linejoin:miter;stroke-opacity:1"
     id="text22083-4-9"><path
       d="m 19.22559,63.538921 0,-0.734253 -0.604248,0 0,-0.303955 0.970459,0 0,1.173706 q -0.214234,0.151978 -0.472412,0.230713 -0.258179,0.0769 -0.551148,0.0769 -0.640869,0 -1.003418,-0.373536 -0.360718,-0.375366 -0.360718,-1.043701 0,-0.670166 0.360718,-1.043701 0.362549,-0.375366 1.003418,-0.375366 0.267334,0 0.507202,0.06592 0.241699,0.06592 0.444947,0.194092 l 0,0.393676 q -0.205079,-0.17395 -0.435791,-0.26184 -0.230713,-0.08789 -0.48523,-0.08789 -0.501709,0 -0.754394,0.280151 -0.250855,0.280152 -0.250855,0.834961 0,0.552979 0.250855,0.83313 0.252685,0.280152 0.754394,0.280152 0.195923,0 0.349731,-0.03296 0.153809,-0.03479 0.27649,-0.106202 z"
       style="font-size:3.75px"
       id="path24187" /><path
       d="m 20.269291,61.195171 0.498047,0 1.212158,2.286988 0,-2.286988 0.358887,0 0,2.733765 -0.498047,0 -1.212158,-2.286987 0,2.286987 -0.358887,0 0,-2.733765 z"
       style="font-size:3.75px"
       id="path24189" /><path
       d="m 23.44434,61.499126 0,2.125855 0.446777,0 q 0.565796,0 0.827637,-0.256348 0.263672,-0.256347 0.263672,-0.809326 0,-0.549316 -0.263672,-0.803833 -0.261841,-0.256348 -0.827637,-0.256348 l -0.446777,0 z m -0.369873,-0.303955 0.759887,0 q 0.794678,0 1.166382,0.331421 0.371704,0.32959 0.371704,1.032715 0,0.706787 -0.373535,1.038208 -0.373535,0.331421 -1.164551,0.331421 l -0.759887,0 0,-2.733765 z"
       style="font-size:3.75px"
       id="path24191" /></g><g
     style="font-style:normal;font-weight:normal;font-size:10px;line-height:125%;font-family:sans-serif;letter-spacing:0px;word-spacing:0px;fill:#000000;fill-opacity:1;stroke:none;stroke-width:1px;stroke-linecap:butt;stroke-linejoin:miter;stroke-opacity:1"
     id="text22083-5"><path
       d="m 19.22559,70.702477 0,-0.734253 -0.604248,0 0,-0.303956 0.970459,0 0,1.173707 q -0.214234,0.151977 -0.472412,0.230712 -0.258179,0.0769 -0.551148,0.0769 -0.640869,0 -1.003418,-0.373535 -0.360718,-0.375367 -0.360718,-1.043702 0,-0.670166 0.360718,-1.043701 0.362549,-0.375366 1.003418,-0.375366 0.267334,0 0.507202,0.06592 0.241699,0.06592 0.444947,0.194092 l 0,0.393677 q -0.205079,-0.173951 -0.435791,-0.261841 -0.230713,-0.08789 -0.48523,-0.08789 -0.501709,0 -0.754394,0.280151 -0.250855,0.280152 -0.250855,0.834961 0,0.552979 0.250855,0.83313 0.252685,0.280152 0.754394,0.280152 0.195923,0 0.349731,-0.03296 0.153809,-0.03479 0.27649,-0.106201 z"
       style="font-size:3.75px"
       id="path24180" /><path
       d="m 20.269291,68.358727 0.498047,0 1.212158,2.286987 0,-2.286987 0.358887,0 0,2.733764 -0.498047,0 -1.212158,-2.286987 0,2.286987 -0.358887,0 0,-2.733764 z"
       style="font-size:3.75px"
       id="path24182" /><path
       d="m 23.44434,68.662682 0,2.125854 0.446777,0 q 0.565796,0 0.827637,-0.256348 0.263672,-0.256347 0.263672,-0.809326 0,-0.549316 -0.263672,-0.803833 -0.261841,-0.256347 -0.827637,-0.256347 l -0.446777,0 z m -0.369873,-0.303955 0.759887,0 q 0.794678,0 1.166382,0.33142 0.371704,0.32959 0.371704,1.032715 0,0.706787 -0.373535,1.038208 -0.373535,0.331421 -1.164551,0.331421 l -0.759887,0 0,-2.733764 z"
       style="font-size:3.75px"
       id="path24184" /></g><g
     style="font-style:normal;font-weight:normal;font-size:10px;line-height:125%;font-family:sans-serif;letter-spacing:0px;word-spacing:0px;fill:#000000;fill-opacity:1;stroke:none;stroke-width:1px;stroke-linecap:butt;stroke-linejoin:miter;stroke-opacity:1"
     id="text22083-3-5"><path
       d="m 18.247807,78.257874 -1.043702,-2.733765 0.386353,0 0.866089,2.301636 0.86792,-2.301636 0.384521,0 -1.04187,2.733765 -0.419311,0 z"
       style="font-size:3.75px"
       id="path24173" /><path
       d="m 20.106327,75.524109 0.369873,0 0,2.733765 -0.369873,0 0,-2.733765 z"
       style="font-size:3.75px"
       id="path24175" /><path
       d="m 21.212284,75.524109 0.498047,0 1.212158,2.286987 0,-2.286987 0.358887,0 0,2.733765 -0.498047,0 -1.212158,-2.286988 0,2.286988 -0.358887,0 0,-2.733765 z"
       style="font-size:3.75px"
       id="path24177" /></g><g
     style="font-style:normal;font-weight:normal;font-size:10px;line-height:125%;font-family:sans-serif;letter-spacing:0px;word-spacing:0px;fill:#000000;fill-opacity:1;stroke:none;stroke-width:1px;stroke-linecap:butt;stroke-linejoin:miter;stroke-opacity:1"
     id="text22083-4-1"><path
       d="m 18.456547,83.050201 -0.501709,1.360474 1.005249,0 -0.50354,-1.360474 z m -0.20874,-0.364379 0.419311,0 1.04187,2.733764 -0.384521,0 -0.249024,-0.701294 -1.2323,0 -0.249023,0.701294 -0.390015,0 1.043702,-2.733764 z"
       style="font-size:3.75px"
       id="path24168" /><path
       d="m 20.930302,82.929352 q -0.285645,0 -0.430298,0.281982 -0.142822,0.280152 -0.142822,0.844116 0,0.562134 0.142822,0.844117 0.144653,0.280151 0.430298,0.280151 0.287475,0 0.430298,-0.280151 0.144653,-0.281983 0.144653,-0.844117 0,-0.563964 -0.144653,-0.844116 -0.142823,-0.281982 -0.430298,-0.281982 z m 0,-0.292969 q 0.459594,0 0.701294,0.36438 0.24353,0.362549 0.24353,1.054687 0,0.690308 -0.24353,1.054688 -0.2417,0.362549 -0.701294,0.362549 -0.459595,0 -0.703125,-0.362549 -0.2417,-0.36438 -0.2417,-1.054688 0,-0.692138 0.2417,-1.054687 0.24353,-0.36438 0.703125,-0.36438 z"
       style="font-size:3.75px"
       id="path24170" /></g><g
     style="font-style:normal;font-weight:normal;font-size:10px;line-height:125%;font-family:sans-serif;letter-spacing:0px;word-spacing:0px;fill:#000000;fill-opacity:1;stroke:none;stroke-width:1px;stroke-linecap:butt;stroke-linejoin:miter;stroke-opacity:1"
     id="text22083-7"><path
       d="m 18.963749,89.939095 0,0.360717 q -0.210571,-0.100708 -0.397339,-0.150146 -0.186768,-0.04944 -0.360718,-0.04944 -0.302124,0 -0.466919,0.117188 -0.162964,0.117187 -0.162964,0.333252 0,0.181274 0.108033,0.274658 0.109863,0.09155 0.413818,0.148315 l 0.223389,0.04578 q 0.413818,0.07873 0.609741,0.27832 0.197754,0.197754 0.197754,0.531006 0,0.397339 -0.267334,0.602417 -0.265503,0.205078 -0.780029,0.205078 -0.194092,0 -0.413819,-0.04395 -0.217895,-0.04395 -0.45227,-0.130005 l 0,-0.380859 q 0.225219,0.126342 0.441284,0.190429 0.216064,0.06409 0.424805,0.06409 0.316772,0 0.488891,-0.124512 0.172119,-0.124511 0.172119,-0.355224 0,-0.201416 -0.124511,-0.314942 -0.122681,-0.113525 -0.404663,-0.170288 l -0.22522,-0.04395 q -0.413819,-0.0824 -0.598755,-0.258179 -0.184937,-0.175781 -0.184937,-0.488891 0,-0.362549 0.254517,-0.571289 0.256348,-0.208741 0.704956,-0.208741 0.192261,0 0.391846,0.03479 0.199585,0.03479 0.408325,0.104371 z"
       style="font-size:3.75px"
       id="path24161" /><path
       d="m 20.075199,90.153328 0,2.125854 0.446777,0 q 0.565796,0 0.827637,-0.256347 0.263672,-0.256348 0.263672,-0.809326 0,-0.549317 -0.263672,-0.803833 -0.261841,-0.256348 -0.827637,-0.256348 l -0.446777,0 z m -0.369873,-0.303955 0.759888,0 q 0.794678,0 1.166382,0.331421 0.371704,0.32959 0.371704,1.032715 0,0.706787 -0.373535,1.038208 -0.373536,0.331421 -1.164551,0.331421 l -0.759888,0 0,-2.733765 z"
       style="font-size:3.75px"
       id="path24163" /><path
       d="m 23.438847,90.213753 -0.501709,1.360473 1.005249,0 -0.50354,-1.360473 z m -0.208741,-0.36438 0.419312,0 1.04187,2.733765 -0.384521,0 -0.249024,-0.701294 -1.2323,0 -0.249023,0.701294 -0.390015,0 1.043701,-2.733765 z"
       style="font-size:3.75px"
       id="path24165" /></g><g
     style="font-style:normal;font-weight:normal;font-size:10px;line-height:125%;font-family:sans-serif;letter-spacing:0px;word-spacing:0px;fill:#000000;fill-opacity:1;stroke:none;stroke-width:1px;stroke-linecap:butt;stroke-linejoin:miter;stroke-opacity:1"
     id="text22083-3-11"><path
       d="m 18.963749,97.102646 0,0.360718 q -0.210571,-0.100708 -0.397339,-0.150147 -0.186768,-0.04944 -0.360718,-0.04944 -0.302124,0 -0.466919,0.117187 -0.162964,0.117188 -0.162964,0.333252 0,0.181275 0.108033,0.274658 0.109863,0.09155 0.413818,0.148316 l 0.223389,0.04578 q 0.413818,0.07873 0.609741,0.27832 0.197754,0.197754 0.197754,0.531006 0,0.397339 -0.267334,0.602417 -0.265503,0.205078 -0.780029,0.205078 -0.194092,0 -0.413819,-0.04395 -0.217895,-0.04394 -0.45227,-0.130005 l 0,-0.380859 q 0.225219,0.126343 0.441284,0.19043 0.216064,0.06409 0.424805,0.06409 0.316772,0 0.488891,-0.124511 0.172119,-0.124512 0.172119,-0.355225 0,-0.201416 -0.124511,-0.314941 -0.122681,-0.113526 -0.404663,-0.170288 l -0.22522,-0.04395 q -0.413819,-0.0824 -0.598755,-0.258178 -0.184937,-0.175782 -0.184937,-0.488892 0,-0.362549 0.254517,-0.571289 0.256348,-0.20874 0.704956,-0.20874 0.192261,0 0.391846,0.03479 0.199585,0.03479 0.408325,0.10437 z"
       style="font-size:3.75px"
       id="path24154" /><path
       d="m 21.752445,97.223495 0,0.390015 q -0.186767,-0.17395 -0.39917,-0.26001 -0.210571,-0.08606 -0.448608,-0.08606 -0.46875,0 -0.717774,0.287475 -0.249023,0.285645 -0.249023,0.827637 0,0.540161 0.249023,0.827637 0.249024,0.285644 0.717774,0.285644 0.238037,0 0.448608,-0.08606 0.212403,-0.08606 0.39917,-0.26001 l 0,0.386353 q -0.194092,0.131835 -0.411987,0.197753 -0.216065,0.06592 -0.457764,0.06592 -0.620727,0 -0.977783,-0.379028 -0.357056,-0.380859 -0.357056,-1.038208 0,-0.65918 0.357056,-1.038208 0.357056,-0.380859 0.977783,-0.380859 0.245362,0 0.461426,0.06592 0.217896,0.06409 0.408325,0.194091 z"
       style="font-size:3.75px"
       id="path24156" /><path
       d="m 22.327396,97.012924 0.369873,0 0,2.422486 1.331177,0 0,0.311279 -1.70105,0 0,-2.733765 z"
       style="font-size:3.75px"
       id="path24158" /></g><g
     style="font-style:normal;font-weight:normal;font-size:10px;line-height:125%;font-family:sans-serif;letter-spacing:0px;word-spacing:0px;fill:#000000;fill-opacity:1;stroke:none;stroke-width:1px;stroke-linecap:butt;stroke-linejoin:miter;stroke-opacity:1"
     id="text22083-40"><path
       d="m 77.313164,27.694603 0,0.360718 q -0.210572,-0.100708 -0.397339,-0.150147 -0.186768,-0.04944 -0.360718,-0.04944 -0.302124,0 -0.466919,0.117187 -0.162964,0.117188 -0.162964,0.333252 0,0.181275 0.108033,0.274658 0.109863,0.09155 0.413818,0.148316 l 0.223389,0.04578 q 0.413818,0.07874 0.609741,0.278321 0.197754,0.197753 0.197754,0.531005 0,0.397339 -0.267334,0.602417 -0.265503,0.205079 -0.78003,0.205079 -0.194091,0 -0.413818,-0.04395 -0.217895,-0.04395 -0.45227,-0.130005 l 0,-0.380859 q 0.225219,0.126343 0.441284,0.19043 0.216064,0.06409 0.424804,0.06409 0.316773,0 0.488892,-0.124512 0.172119,-0.124512 0.172119,-0.355225 0,-0.201416 -0.124512,-0.314941 -0.12268,-0.113526 -0.404663,-0.170288 l -0.225219,-0.04395 q -0.413819,-0.0824 -0.598755,-0.258178 -0.184937,-0.175782 -0.184937,-0.488892 0,-0.362549 0.254517,-0.571289 0.256347,-0.20874 0.704956,-0.20874 0.192261,0 0.391846,0.03479 0.199585,0.03479 0.408325,0.10437 z"
       style="font-size:3.75px"
       id="path24434" /><path
       d="m 80.10186,27.815453 0,0.390014 q -0.186768,-0.17395 -0.39917,-0.26001 -0.210571,-0.08606 -0.448608,-0.08606 -0.46875,0 -0.717774,0.287475 -0.249023,0.285645 -0.249023,0.827637 0,0.540161 0.249023,0.827637 0.249024,0.285644 0.717774,0.285644 0.238037,0 0.448608,-0.08606 0.212402,-0.08606 0.39917,-0.26001 l 0,0.386353 q -0.194092,0.131836 -0.411987,0.197754 -0.216065,0.06592 -0.457764,0.06592 -0.620727,0 -0.977783,-0.379029 -0.357056,-0.380859 -0.357056,-1.038208 0,-0.659179 0.357056,-1.038208 0.357056,-0.380859 0.977783,-0.380859 0.245361,0 0.461426,0.06592 0.217895,0.06409 0.408325,0.194092 z"
       style="font-size:3.75px"
       id="path24436" /><path
       d="m 80.676811,27.604881 0.369873,0 0,2.422486 1.331177,0 0,0.311279 -1.70105,0 0,-2.733765 z"
       style="font-size:3.75px"
       id="path24438" /><path
       d="m 83.34832,27.604881 0.311279,0 -0.952148,3.081665 -0.311279,0 0.952148,-3.081665 z"
       style="font-size:3.75px"
       id="path24440" /><path
       d="m 84.401176,27.908836 0,2.125855 0.446778,0 q 0.565796,0 0.827637,-0.256348 0.263671,-0.256347 0.263671,-0.809326 0,-0.549316 -0.263671,-0.803833 -0.261841,-0.256348 -0.827637,-0.256348 l -0.446778,0 z m -0.369873,-0.303955 0.759888,0 q 0.794678,0 1.166382,0.331421 0.371704,0.32959 0.371704,1.032715 0,0.706787 -0.373535,1.038208 -0.373535,0.331421 -1.164551,0.331421 l -0.759888,0 0,-2.733765 z"
       style="font-size:3.75px"
       id="path24442" /><path
       d="m 87.014091,30.027367 0.604249,0 0,-2.085572 -0.657349,0.131836 0,-0.336914 0.653686,-0.131836 0.369873,0 0,2.422486 0.604249,0 0,0.311279 -1.574708,0 0,-0.311279 z"
       style="font-size:3.75px"
       id="path24444" /></g><g
     style="font-style:normal;font-weight:normal;font-size:10px;line-height:125%;font-family:sans-serif;letter-spacing:0px;word-spacing:0px;fill:#000000;fill-opacity:1;stroke:none;stroke-width:1px;stroke-linecap:butt;stroke-linejoin:miter;stroke-opacity:1"
     id="text22083-3-8"><path
       d="m 76.668633,34.844948 0,0.360718 q -0.210572,-0.100708 -0.397339,-0.150147 -0.186768,-0.04944 -0.360718,-0.04944 -0.302124,0 -0.466919,0.117187 -0.162964,0.117188 -0.162964,0.333252 0,0.181274 0.108032,0.274658 0.109864,0.09155 0.413819,0.148316 l 0.223388,0.04578 q 0.413819,0.07874 0.609742,0.27832 0.197753,0.197754 0.197753,0.531006 0,0.397339 -0.267334,0.602417 -0.265502,0.205078 -0.780029,0.205078 -0.194092,0 -0.413818,-0.04395 -0.217896,-0.04395 -0.452271,-0.130005 l 0,-0.380859 q 0.22522,0.126343 0.441284,0.190429 0.216065,0.06409 0.424805,0.06409 0.316773,0 0.488892,-0.124511 0.172119,-0.124512 0.172119,-0.355225 0,-0.201416 -0.124512,-0.314941 -0.12268,-0.113526 -0.404663,-0.170288 l -0.22522,-0.04395 q -0.413818,-0.0824 -0.598755,-0.258178 -0.184936,-0.175782 -0.184936,-0.488892 0,-0.362549 0.254517,-0.571289 0.256347,-0.20874 0.704956,-0.20874 0.19226,0 0.391845,0.03479 0.199585,0.03479 0.408326,0.10437 z"
       style="font-size:3.75px"
       id="path24421" /><path
       d="m 77.780083,35.059181 0,2.125855 0.446777,0 q 0.565796,0 0.827637,-0.256348 0.263672,-0.256348 0.263672,-0.809326 0,-0.549317 -0.263672,-0.803833 -0.261841,-0.256348 -0.827637,-0.256348 l -0.446777,0 z m -0.369873,-0.303955 0.759887,0 q 0.794678,0 1.166382,0.331421 0.371704,0.32959 0.371704,1.032715 0,0.706787 -0.373535,1.038208 -0.373535,0.331421 -1.164551,0.331421 l -0.759887,0 0,-2.733765 z"
       style="font-size:3.75px"
       id="path24423" /><path
       d="m 81.14373,35.119606 -0.501709,1.360474 1.005249,0 -0.50354,-1.360474 z m -0.20874,-0.36438 0.419311,0 1.041871,2.733765 -0.384522,0 -0.249023,-0.701294 -1.2323,0 -0.249024,0.701294 -0.390014,0 1.043701,-2.733765 z"
       style="font-size:3.75px"
       id="path24425" /><path
       d="m 83.377617,34.755226 0.311279,0 -0.952148,3.081665 -0.31128,0 0.952149,-3.081665 z"
       style="font-size:3.75px"
       id="path24427" /><path
       d="m 84.430473,35.059181 0,2.125855 0.446778,0 q 0.565796,0 0.827636,-0.256348 0.263672,-0.256348 0.263672,-0.809326 0,-0.549317 -0.263672,-0.803833 -0.26184,-0.256348 -0.827636,-0.256348 l -0.446778,0 z m -0.369873,-0.303955 0.759888,0 q 0.794678,0 1.166382,0.331421 0.371704,0.32959 0.371704,1.032715 0,0.706787 -0.373535,1.038208 -0.373535,0.331421 -1.164551,0.331421 l -0.759888,0 0,-2.733765 z"
       style="font-size:3.75px"
       id="path24429" /><path
       d="m 87.297905,37.177711 1.290894,0 0,0.31128 -1.73584,0 0,-0.31128 q 0.210571,-0.217895 0.57312,-0.584106 0.36438,-0.368042 0.457763,-0.474243 0.177613,-0.199585 0.247193,-0.336914 0.07141,-0.13916 0.07141,-0.272827 0,-0.217896 -0.153809,-0.355225 -0.151977,-0.137329 -0.397338,-0.137329 -0.173951,0 -0.368042,0.06043 -0.192261,0.06043 -0.411988,0.183105 l 0,-0.373535 q 0.223389,-0.08972 0.417481,-0.135498 0.194091,-0.04578 0.355224,-0.04578 0.424805,0 0.677491,0.212402 0.252685,0.212402 0.252685,0.567627 0,0.168457 -0.06409,0.320435 -0.06226,0.150146 -0.228882,0.355224 -0.04578,0.0531 -0.291137,0.307617 -0.245362,0.252686 -0.692139,0.708618 z"
       style="font-size:3.75px"
       id="path24431" /></g><g
     style="font-style:normal;font-weight:normal;font-size:10px;line-height:125%;font-family:sans-serif;letter-spacing:0px;word-spacing:0px;fill:#000000;fill-opacity:1;stroke:none;stroke-width:1px;stroke-linecap:butt;stroke-linejoin:miter;stroke-opacity:1"
     id="text22083-4-8"><path
       d="m 82.441948,44.396729 0,-0.734253 -0.604248,0 0,-0.303955 0.970459,0 0,1.173706 q -0.214234,0.151977 -0.472412,0.230712 -0.258179,0.0769 -0.551148,0.0769 -0.640869,0 -1.003418,-0.373535 -0.360717,-0.375367 -0.360717,-1.043702 0,-0.670166 0.360717,-1.043701 0.362549,-0.375366 1.003418,-0.375366 0.267334,0 0.507202,0.06592 0.2417,0.06592 0.444947,0.194092 l 0,0.393677 q -0.205078,-0.173951 -0.435791,-0.261841 -0.230713,-0.08789 -0.48523,-0.08789 -0.501709,0 -0.754394,0.280151 -0.250855,0.280152 -0.250855,0.834961 0,0.552979 0.250855,0.83313 0.252685,0.280152 0.754394,0.280152 0.195923,0 0.349732,-0.03296 0.153808,-0.03479 0.276489,-0.106201 z"
       style="font-size:3.75px"
       id="path24414" /><path
       d="m 83.485649,42.052979 0.498047,0 1.212158,2.286987 0,-2.286987 0.358887,0 0,2.733764 -0.498047,0 -1.212158,-2.286987 0,2.286987 -0.358887,0 0,-2.733764 z"
       style="font-size:3.75px"
       id="path24416" /><path
       d="m 86.660698,42.356934 0,2.125854 0.446777,0 q 0.565796,0 0.827637,-0.256348 0.263672,-0.256347 0.263672,-0.809326 0,-0.549316 -0.263672,-0.803833 -0.261841,-0.256347 -0.827637,-0.256347 l -0.446777,0 z m -0.369873,-0.303955 0.759888,0 q 0.794677,0 1.166381,0.33142 0.371705,0.32959 0.371705,1.032715 0,0.706787 -0.373536,1.038208 -0.373535,0.331421 -1.16455,0.331421 l -0.759888,0 0,-2.733764 z"
       style="font-size:3.75px"
       id="path24418" /></g><g
     style="font-style:normal;font-weight:normal;font-size:10px;line-height:125%;font-family:sans-serif;letter-spacing:0px;word-spacing:0px;fill:#000000;fill-opacity:1;stroke:none;stroke-width:1px;stroke-linecap:butt;stroke-linejoin:miter;stroke-opacity:1"
     id="text22083-1-3"><path
       d="m 82.441948,51.547066 0,-0.734253 -0.604248,0 0,-0.303955 0.970459,0 0,1.173706 q -0.214234,0.151977 -0.472412,0.230713 -0.258179,0.0769 -0.551148,0.0769 -0.640869,0 -1.003418,-0.373535 -0.360717,-0.375366 -0.360717,-1.043701 0,-0.670166 0.360717,-1.043702 0.362549,-0.375366 1.003418,-0.375366 0.267334,0 0.507202,0.06592 0.2417,0.06592 0.444947,0.194092 l 0,0.393677 q -0.205078,-0.17395 -0.435791,-0.261841 -0.230713,-0.08789 -0.48523,-0.08789 -0.501709,0 -0.754394,0.280152 -0.250855,0.280151 -0.250855,0.834961 0,0.552978 0.250855,0.83313 0.252685,0.280151 0.754394,0.280151 0.195923,0 0.349732,-0.03296 0.153808,-0.03479 0.276489,-0.106201 z"
       style="font-size:3.75px"
       id="path24407" /><path
       d="m 83.485649,49.203316 0.498047,0 1.212158,2.286987 0,-2.286987 0.358887,0 0,2.733764 -0.498047,0 -1.212158,-2.286987 0,2.286987 -0.358887,0 0,-2.733764 z"
       style="font-size:3.75px"
       id="path24409" /><path
       d="m 86.660698,49.507271 0,2.125854 0.446777,0 q 0.565796,0 0.827637,-0.256347 0.263672,-0.256348 0.263672,-0.809327 0,-0.549316 -0.263672,-0.803833 -0.261841,-0.256347 -0.827637,-0.256347 l -0.446777,0 z m -0.369873,-0.303955 0.759888,0 q 0.794677,0 1.166381,0.331421 0.371705,0.329589 0.371705,1.032714 0,0.706788 -0.373536,1.038208 -0.373535,0.331421 -1.16455,0.331421 l -0.759888,0 0,-2.733764 z"
       style="font-size:3.75px"
       id="path24411" /></g><g
     style="font-style:normal;font-weight:normal;font-size:10px;line-height:125%;font-family:sans-serif;letter-spacing:0px;word-spacing:0px;fill:#000000;fill-opacity:1;stroke:none;stroke-width:1px;stroke-linecap:butt;stroke-linejoin:miter;stroke-opacity:1"
     id="text22083-3-1-5"><path
       d="m 76.921318,56.295998 0,0.360717 q -0.210571,-0.100708 -0.397339,-0.150146 -0.186767,-0.04944 -0.360718,-0.04944 -0.302124,0 -0.466919,0.117188 -0.162963,0.117187 -0.162963,0.333252 0,0.181274 0.108032,0.274658 0.109863,0.09155 0.413818,0.148316 l 0.223389,0.04578 q 0.413818,0.07874 0.609741,0.27832 0.197754,0.197754 0.197754,0.531006 0,0.397339 -0.267334,0.602417 -0.265503,0.205078 -0.780029,0.205078 -0.194092,0 -0.413819,-0.04395 -0.217895,-0.04395 -0.45227,-0.130005 l 0,-0.380859 q 0.22522,0.126342 0.441284,0.190429 0.216064,0.06409 0.424805,0.06409 0.316772,0 0.488891,-0.124512 0.172119,-0.124511 0.172119,-0.355224 0,-0.201416 -0.124511,-0.314942 -0.122681,-0.113525 -0.404663,-0.170288 l -0.22522,-0.04395 q -0.413818,-0.0824 -0.598755,-0.258179 -0.184937,-0.175781 -0.184937,-0.488891 0,-0.362549 0.254517,-0.571289 0.256348,-0.208741 0.704956,-0.208741 0.192261,0 0.391846,0.03479 0.199585,0.03479 0.408325,0.10437 z"
       style="font-size:3.75px"
       id="path24394" /><path
       d="m 79.710014,56.416847 0,0.390015 q -0.186767,-0.17395 -0.39917,-0.26001 -0.210571,-0.08606 -0.448608,-0.08606 -0.46875,0 -0.717773,0.287475 -0.249024,0.285645 -0.249024,0.827637 0,0.540161 0.249024,0.827637 0.249023,0.285644 0.717773,0.285644 0.238037,0 0.448608,-0.08606 0.212403,-0.08606 0.39917,-0.26001 l 0,0.386352 q -0.194091,0.131836 -0.411987,0.197754 -0.216064,0.06592 -0.457764,0.06592 -0.620727,0 -0.977783,-0.379028 -0.357056,-0.38086 -0.357056,-1.038208 0,-0.65918 0.357056,-1.038208 0.357056,-0.38086 0.977783,-0.38086 0.245362,0 0.461426,0.06592 0.217896,0.06409 0.408325,0.194092 z"
       style="font-size:3.75px"
       id="path24396" /><path
       d="m 80.284966,56.206276 0.369873,0 0,1.155395 1.226806,-1.155395 0.476074,0 -1.356811,1.274414 1.453857,1.459351 -0.48706,0 -1.312866,-1.316529 0,1.316529 -0.369873,0 0,-2.733765 z"
       style="font-size:3.75px"
       id="path24398" /><path
       d="m 83.330009,56.206276 0.31128,0 -0.952149,3.081665 -0.311279,0 0.952148,-3.081665 z"
       style="font-size:3.75px"
       id="path24400" /><path
       d="m 84.382866,56.510231 0,2.125855 0.446777,0 q 0.565796,0 0.827637,-0.256348 0.263672,-0.256348 0.263672,-0.809326 0,-0.549317 -0.263672,-0.803833 -0.261841,-0.256348 -0.827637,-0.256348 l -0.446777,0 z m -0.369873,-0.303955 0.759888,0 q 0.794677,0 1.166381,0.331421 0.371704,0.32959 0.371704,1.032715 0,0.706787 -0.373535,1.038208 -0.373535,0.331421 -1.16455,0.331421 l -0.759888,0 0,-2.733765 z"
       style="font-size:3.75px"
       id="path24402" /><path
       d="m 86.935356,56.206276 1.452027,0 0,0.311279 -1.113282,0 0,0.670166 q 0.08057,-0.02747 0.161133,-0.04028 0.08057,-0.01465 0.161133,-0.01465 0.457764,0 0.725098,0.250854 0.267334,0.250855 0.267334,0.679321 0,0.441285 -0.274659,0.686646 -0.274658,0.24353 -0.774536,0.24353 -0.172119,0 -0.351562,-0.0293 -0.177613,-0.0293 -0.368042,-0.08789 l 0,-0.371704 q 0.164795,0.08972 0.340576,0.133667 0.175781,0.04395 0.371704,0.04395 0.316772,0 0.501709,-0.166626 0.184936,-0.166626 0.184936,-0.452271 0,-0.285644 -0.184936,-0.45227 -0.184937,-0.166626 -0.501709,-0.166626 -0.148315,0 -0.296631,0.03296 -0.146484,0.03296 -0.300293,0.102539 l 0,-1.373291 z"
       style="font-size:3.75px"
       id="path24404" /></g><g
     style="font-style:normal;font-weight:normal;font-size:10px;line-height:125%;font-family:sans-serif;letter-spacing:0px;word-spacing:0px;fill:#000000;fill-opacity:1;stroke:none;stroke-width:1px;stroke-linecap:butt;stroke-linejoin:miter;stroke-opacity:1"
     id="text22083-4-9-5"><path
       d="m 72.979057,63.356621 0.551148,0 0.697632,1.860351 0.701294,-1.860351 0.551147,0 0,2.733764 -0.360718,0 0,-2.400512 -0.704956,1.875 -0.371704,0 -0.704956,-1.875 0,2.400512 -0.358887,0 0,-2.733764 z"
       style="font-size:3.75px"
       id="path24379" /><path
       d="m 76.216362,63.356621 0.369873,0 0,2.733764 -0.369873,0 0,-2.733764 z"
       style="font-size:3.75px"
       id="path24381" /><path
       d="m 78.961113,63.446342 0,0.360718 q -0.210571,-0.100708 -0.397339,-0.150146 -0.186767,-0.04944 -0.360718,-0.04944 -0.302124,0 -0.466919,0.117188 -0.162963,0.117187 -0.162963,0.333252 0,0.181274 0.108032,0.274658 0.109863,0.09155 0.413818,0.148315 l 0.223389,0.04578 q 0.413818,0.07874 0.609741,0.27832 0.197754,0.197754 0.197754,0.531006 0,0.397339 -0.267334,0.602417 -0.265503,0.205078 -0.780029,0.205078 -0.194092,0 -0.413819,-0.04394 -0.217895,-0.04395 -0.45227,-0.130005 l 0,-0.38086 q 0.225219,0.126343 0.441284,0.19043 0.216064,0.06409 0.424805,0.06409 0.316772,0 0.488891,-0.124512 0.172119,-0.124511 0.172119,-0.355224 0,-0.201416 -0.124511,-0.314942 -0.122681,-0.113525 -0.404663,-0.170288 l -0.22522,-0.04394 q -0.413819,-0.0824 -0.598755,-0.258179 -0.184937,-0.175781 -0.184937,-0.488891 0,-0.362549 0.254517,-0.571289 0.256348,-0.208741 0.704956,-0.208741 0.192261,0 0.391846,0.03479 0.199585,0.03479 0.408325,0.10437 z"
       style="font-size:3.75px"
       id="path24383" /><path
       d="m 80.812309,63.607475 q -0.402832,0 -0.640869,0.300293 -0.236206,0.300293 -0.236206,0.818482 0,0.516357 0.236206,0.81665 0.238037,0.300293 0.640869,0.300293 0.402832,0 0.637207,-0.300293 0.236206,-0.300293 0.236206,-0.81665 0,-0.518189 -0.236206,-0.818482 -0.234375,-0.300293 -0.637207,-0.300293 z m 0,-0.300293 q 0.574951,0 0.91919,0.386353 0.344238,0.384521 0.344238,1.032715 0,0.646362 -0.344238,1.032715 -0.344239,0.384521 -0.91919,0.384521 -0.576782,0 -0.922851,-0.384521 -0.344239,-0.384522 -0.344239,-1.032715 0,-0.648194 0.344239,-1.032715 0.346069,-0.386353 0.922851,-0.386353 z"
       style="font-size:3.75px"
       id="path24385" /><path
       d="m 83.238457,63.356621 0.311279,0 -0.952148,3.081665 -0.31128,0 0.952149,-3.081665 z"
       style="font-size:3.75px"
       id="path24387" /><path
       d="m 84.291313,63.660576 0,2.125854 0.446778,0 q 0.565795,0 0.827636,-0.256347 0.263672,-0.256348 0.263672,-0.809326 0,-0.549317 -0.263672,-0.803833 -0.261841,-0.256348 -0.827636,-0.256348 l -0.446778,0 z m -0.369873,-0.303955 0.759888,0 q 0.794678,0 1.166382,0.331421 0.371704,0.32959 0.371704,1.032715 0,0.706787 -0.373535,1.038208 -0.373536,0.33142 -1.164551,0.33142 l -0.759888,0 0,-2.733764 z"
       style="font-size:3.75px"
       id="path24389" /><path
       d="m 87.676933,64.576103 q -0.249023,0 -0.395508,0.170288 -0.144653,0.170288 -0.144653,0.466919 0,0.2948 0.144653,0.466919 0.146485,0.170288 0.395508,0.170288 0.249024,0 0.393677,-0.170288 0.146484,-0.172119 0.146484,-0.466919 0,-0.296631 -0.146484,-0.466919 -0.144653,-0.170288 -0.393677,-0.170288 z m 0.734253,-1.159057 0,0.336914 q -0.13916,-0.06592 -0.281982,-0.100708 -0.140991,-0.03479 -0.280152,-0.03479 -0.366211,0 -0.560302,0.247192 -0.192261,0.247192 -0.219727,0.74707 0.108032,-0.159301 0.270996,-0.24353 0.162964,-0.08606 0.358887,-0.08606 0.411987,0 0.650024,0.250855 0.239869,0.249023 0.239869,0.679321 0,0.421143 -0.249024,0.675659 -0.249023,0.254517 -0.662842,0.254517 -0.474243,0 -0.725097,-0.362549 -0.250855,-0.36438 -0.250855,-1.054687 0,-0.648194 0.307617,-1.032715 0.307618,-0.386353 0.825806,-0.386353 0.13916,0 0.280151,0.02747 0.142823,0.02747 0.296631,0.0824 z"
       style="font-size:3.75px"
       id="path24391" /></g><g
     style="font-style:normal;font-weight:normal;font-size:10px;line-height:125%;font-family:sans-serif;letter-spacing:0px;word-spacing:0px;fill:#000000;fill-opacity:1;stroke:none;stroke-width:1px;stroke-linecap:butt;stroke-linejoin:miter;stroke-opacity:1"
     id="text22083-5-2"><path
       d="m 73.063286,70.506966 0.551147,0 0.697632,1.860351 0.701294,-1.860351 0.551148,0 0,2.733764 -0.360718,0 0,-2.400512 -0.704956,1.875 -0.371704,0 -0.704956,-1.875 0,2.400512 -0.358887,0 0,-2.733764 z"
       style="font-size:3.75px"
       id="path24364" /><path
       d="m 77.41021,70.75782 q -0.402832,0 -0.640869,0.300293 -0.236207,0.300293 -0.236207,0.818482 0,0.516357 0.236207,0.81665 0.238037,0.300293 0.640869,0.300293 0.402832,0 0.637207,-0.300293 0.236206,-0.300293 0.236206,-0.81665 0,-0.518189 -0.236206,-0.818482 Q 77.813042,70.75782 77.41021,70.75782 Z m 0,-0.300293 q 0.574951,0 0.919189,0.386353 0.344238,0.384521 0.344238,1.032715 0,0.646362 -0.344238,1.032714 -0.344238,0.384522 -0.919189,0.384522 -0.576783,0 -0.922852,-0.384522 -0.344238,-0.384521 -0.344238,-1.032714 0,-0.648194 0.344238,-1.032715 0.346069,-0.386353 0.922852,-0.386353 z"
       style="font-size:3.75px"
       id="path24366" /><path
       d="m 80.891045,70.596687 0,0.360718 q -0.210572,-0.100708 -0.397339,-0.150146 -0.186768,-0.04944 -0.360718,-0.04944 -0.302124,0 -0.466919,0.117188 -0.162964,0.117187 -0.162964,0.333252 0,0.181274 0.108032,0.274658 0.109864,0.09155 0.413819,0.148315 l 0.223388,0.04578 q 0.413819,0.07874 0.609742,0.27832 0.197754,0.197754 0.197754,0.531006 0,0.397339 -0.267334,0.602417 -0.265503,0.205078 -0.78003,0.205078 -0.194092,0 -0.413818,-0.04394 -0.217896,-0.04395 -0.452271,-0.130005 l 0,-0.38086 q 0.22522,0.126343 0.441285,0.19043 0.216064,0.06409 0.424804,0.06409 0.316773,0 0.488892,-0.124512 0.172119,-0.124512 0.172119,-0.355224 0,-0.201416 -0.124512,-0.314942 -0.12268,-0.113525 -0.404663,-0.170288 l -0.22522,-0.04394 q -0.413818,-0.0824 -0.598754,-0.258179 -0.184937,-0.175781 -0.184937,-0.488892 0,-0.362548 0.254517,-0.571289 0.256347,-0.20874 0.704956,-0.20874 0.19226,0 0.391845,0.03479 0.199585,0.03479 0.408326,0.10437 z"
       style="font-size:3.75px"
       id="path24368" /><path
       d="m 81.632622,70.506966 0.369873,0 0,2.733764 -0.369873,0 0,-2.733764 z"
       style="font-size:3.75px"
       id="path24370" /><path
       d="m 83.322685,70.506966 0.31128,0 -0.952149,3.081665 -0.311279,0 0.952148,-3.081665 z"
       style="font-size:3.75px"
       id="path24372" /><path
       d="m 84.375542,70.810921 0,2.125854 0.446777,0 q 0.565796,0 0.827637,-0.256347 0.263672,-0.256348 0.263672,-0.809327 0,-0.549316 -0.263672,-0.803833 -0.261841,-0.256347 -0.827637,-0.256347 l -0.446777,0 z m -0.369873,-0.303955 0.759887,0 q 0.794678,0 1.166382,0.331421 0.371704,0.329589 0.371704,1.032714 0,0.706787 -0.373535,1.038208 -0.373535,0.331421 -1.164551,0.331421 l -0.759887,0 0,-2.733764 z"
       style="font-size:3.75px"
       id="path24374" /><path
       d="m 86.830986,70.506966 1.757813,0 0,0.15747 -0.992432,2.576294 -0.386353,0 0.933838,-2.422485 -1.312866,0 0,-0.311279 z"
       style="font-size:3.75px"
       id="path24376" /></g><g
     style="font-style:normal;font-weight:normal;font-size:10px;line-height:125%;font-family:sans-serif;letter-spacing:0px;word-spacing:0px;fill:#000000;fill-opacity:1;stroke:none;stroke-width:1px;stroke-linecap:butt;stroke-linejoin:miter;stroke-opacity:1"
     id="text22083-3-5-8"><path
       d="m 79.552544,77.74704 0,0.360718 q -0.210572,-0.100708 -0.397339,-0.150147 -0.186768,-0.04944 -0.360718,-0.04944 -0.302124,0 -0.466919,0.117187 -0.162964,0.117188 -0.162964,0.333252 0,0.181274 0.108032,0.274658 0.109864,0.09155 0.413819,0.148316 l 0.223388,0.04578 q 0.413819,0.07874 0.609742,0.27832 0.197754,0.197754 0.197754,0.531006 0,0.397339 -0.267334,0.602417 -0.265503,0.205078 -0.78003,0.205078 -0.194092,0 -0.413818,-0.04394 -0.217896,-0.04395 -0.452271,-0.130005 l 0,-0.380859 q 0.22522,0.126343 0.441285,0.190429 0.216064,0.06409 0.424804,0.06409 0.316773,0 0.488892,-0.124511 0.172119,-0.124512 0.172119,-0.355225 0,-0.201416 -0.124512,-0.314941 -0.12268,-0.113526 -0.404663,-0.170288 l -0.22522,-0.04395 q -0.413818,-0.0824 -0.598754,-0.258178 -0.184937,-0.175782 -0.184937,-0.488892 0,-0.362549 0.254517,-0.571289 0.256347,-0.20874 0.704956,-0.20874 0.19226,0 0.391845,0.03479 0.199585,0.03479 0.408326,0.10437 z"
       style="font-size:3.75px"
       id="path24353" /><path
       d="m 81.932915,77.74704 0,0.360718 q -0.210572,-0.100708 -0.397339,-0.150147 -0.186768,-0.04944 -0.360718,-0.04944 -0.302124,0 -0.466919,0.117187 -0.162964,0.117188 -0.162964,0.333252 0,0.181274 0.108033,0.274658 0.109863,0.09155 0.413818,0.148316 l 0.223389,0.04578 q 0.413818,0.07874 0.609741,0.27832 0.197754,0.197754 0.197754,0.531006 0,0.397339 -0.267334,0.602417 -0.265503,0.205078 -0.78003,0.205078 -0.194091,0 -0.413818,-0.04394 -0.217895,-0.04395 -0.45227,-0.130005 l 0,-0.380859 q 0.225219,0.126343 0.441284,0.190429 0.216064,0.06409 0.424804,0.06409 0.316773,0 0.488892,-0.124511 0.172119,-0.124512 0.172119,-0.355225 0,-0.201416 -0.124512,-0.314941 -0.12268,-0.113526 -0.404663,-0.170288 l -0.225219,-0.04395 q -0.413819,-0.0824 -0.598755,-0.258178 -0.184937,-0.175782 -0.184937,-0.488892 0,-0.362549 0.254517,-0.571289 0.256347,-0.20874 0.704956,-0.20874 0.192261,0 0.391846,0.03479 0.199584,0.03479 0.408325,0.10437 z"
       style="font-size:3.75px"
       id="path24355" /><path
       d="m 83.258598,77.657318 0.31128,0 -0.952149,3.081665 -0.311279,0 0.952148,-3.081665 z"
       style="font-size:3.75px"
       id="path24357" /><path
       d="m 84.311455,77.961273 0,2.125855 0.446777,0 q 0.565796,0 0.827637,-0.256348 0.263672,-0.256348 0.263672,-0.809326 0,-0.549317 -0.263672,-0.803833 -0.261841,-0.256348 -0.827637,-0.256348 l -0.446777,0 z m -0.369873,-0.303955 0.759887,0 q 0.794678,0 1.166382,0.331421 0.371704,0.32959 0.371704,1.032715 0,0.706787 -0.373535,1.038208 -0.373535,0.331421 -1.164551,0.331421 l -0.759887,0 0,-2.733765 z"
       style="font-size:3.75px"
       id="path24359" /><path
       d="m 87.651299,79.092865 q -0.263672,0 -0.41565,0.140991 -0.150146,0.140991 -0.150146,0.388184 0,0.247192 0.150146,0.388183 0.151978,0.140992 0.41565,0.140992 0.263671,0 0.415649,-0.140992 0.151977,-0.142822 0.151977,-0.388183 0,-0.247193 -0.151977,-0.388184 -0.150147,-0.140991 -0.415649,-0.140991 z m -0.369874,-0.157471 q -0.238037,-0.05859 -0.371704,-0.221557 -0.131836,-0.162964 -0.131836,-0.397339 0,-0.327759 0.232544,-0.518189 0.234375,-0.190429 0.64087,-0.190429 0.408325,0 0.640869,0.190429 0.232544,0.19043 0.232544,0.518189 0,0.234375 -0.133667,0.397339 -0.131836,0.162964 -0.368042,0.221557 0.267334,0.06226 0.415649,0.243531 0.150147,0.181274 0.150147,0.443115 0,0.397339 -0.243531,0.609741 -0.241699,0.212402 -0.693969,0.212402 -0.452271,0 -0.695801,-0.212402 -0.241699,-0.212402 -0.241699,-0.609741 0,-0.261841 0.150146,-0.443115 0.150146,-0.181275 0.41748,-0.243531 z m -0.135498,-0.584106 q 0,0.212402 0.131836,0.331421 0.133667,0.119018 0.373536,0.119018 0.238037,0 0.371704,-0.119018 0.135498,-0.119019 0.135498,-0.331421 0,-0.212403 -0.135498,-0.331421 -0.133667,-0.119019 -0.371704,-0.119019 -0.239869,0 -0.373536,0.119019 -0.131836,0.119018 -0.131836,0.331421 z"
       style="font-size:3.75px"
       id="path24361" /></g><g
     style="font-style:normal;font-weight:normal;font-size:10px;line-height:125%;font-family:sans-serif;letter-spacing:0px;word-spacing:0px;fill:#000000;fill-opacity:1;stroke:none;stroke-width:1px;stroke-linecap:butt;stroke-linejoin:miter;stroke-opacity:1"
     id="text22083-4-1-2"><path
       d="m 84.375542,85.260849 0,2.125854 0.446777,0 q 0.565796,0 0.827637,-0.256347 0.263672,-0.256348 0.263672,-0.809326 0,-0.549317 -0.263672,-0.803833 -0.261841,-0.256348 -0.827637,-0.256348 l -0.446777,0 z m -0.369873,-0.303955 0.759887,0 q 0.794678,0 1.166382,0.331421 0.371704,0.32959 0.371704,1.032715 0,0.706787 -0.373535,1.038208 -0.373535,0.331421 -1.164551,0.331421 l -0.759887,0 0,-2.733765 z"
       style="font-size:3.75px"
       id="path24348" /><path
       d="m 86.830986,84.956894 1.757813,0 0,0.157471 -0.992432,2.576294 -0.386353,0 0.933838,-2.422486 -1.312866,0 0,-0.311279 z"
       style="font-size:3.75px"
       id="path24350" /></g><g
     style="font-style:normal;font-weight:normal;font-size:10px;line-height:125%;font-family:sans-serif;letter-spacing:0px;word-spacing:0px;fill:#000000;fill-opacity:1;stroke:none;stroke-width:1px;stroke-linecap:butt;stroke-linejoin:miter;stroke-opacity:1"
     id="text22083-7-3"><path
       d="m 84.291313,92.409363 0,2.125854 0.446778,0 q 0.565795,0 0.827636,-0.256347 0.263672,-0.256348 0.263672,-0.809327 0,-0.549316 -0.263672,-0.803833 -0.261841,-0.256347 -0.827636,-0.256347 l -0.446778,0 z m -0.369873,-0.303955 0.759888,0 q 0.794678,0 1.166382,0.331421 0.371704,0.329589 0.371704,1.032714 0,0.706788 -0.373535,1.038208 -0.373536,0.331421 -1.164551,0.331421 l -0.759888,0 0,-2.733764 z"
       style="font-size:3.75px"
       id="path24343" /><path
       d="m 87.676933,93.32489 q -0.249023,0 -0.395508,0.170288 -0.144653,0.170288 -0.144653,0.466919 0,0.2948 0.144653,0.466919 0.146485,0.170288 0.395508,0.170288 0.249024,0 0.393677,-0.170288 0.146484,-0.172119 0.146484,-0.466919 0,-0.296631 -0.146484,-0.466919 -0.144653,-0.170288 -0.393677,-0.170288 z m 0.734253,-1.159057 0,0.336914 q -0.13916,-0.06592 -0.281982,-0.100708 -0.140991,-0.03479 -0.280152,-0.03479 -0.366211,0 -0.560302,0.247192 -0.192261,0.247192 -0.219727,0.74707 0.108032,-0.159302 0.270996,-0.24353 0.162964,-0.08606 0.358887,-0.08606 0.411987,0 0.650024,0.250855 0.239869,0.249023 0.239869,0.679321 0,0.421143 -0.249024,0.675659 -0.249023,0.254517 -0.662842,0.254517 -0.474243,0 -0.725097,-0.362549 -0.250855,-0.36438 -0.250855,-1.054687 0,-0.648194 0.307617,-1.032715 0.307618,-0.386353 0.825806,-0.386353 0.13916,0 0.280151,0.02747 0.142823,0.02747 0.296631,0.0824 z"
       style="font-size:3.75px"
       id="path24345" /></g><g
     style="font-style:normal;font-weight:normal;font-size:10px;line-height:125%;font-family:sans-serif;letter-spacing:0px;word-spacing:0px;fill:#000000;fill-opacity:1;stroke:none;stroke-width:1px;stroke-linecap:butt;stroke-linejoin:miter;stroke-opacity:1"
     id="text22083-3-11-7"><path
       d="m 84.382866,99.534988 0,2.125852 0.446777,0 q 0.565796,0 0.827637,-0.25634 0.263672,-0.25635 0.263672,-0.80933 0,-0.54932 -0.263672,-0.803834 -0.261841,-0.256348 -0.827637,-0.256348 l -0.446777,0 z m -0.369873,-0.303955 0.759888,0 q 0.794677,0 1.166381,0.331421 0.371704,0.32959 0.371704,1.032716 0,0.70679 -0.373535,1.03821 -0.373535,0.33142 -1.16455,0.33142 l -0.759888,0 0,-2.733767 z"
       style="font-size:3.75px"
       id="path24338" /><path
       d="m 86.935356,99.231033 1.452027,0 0,0.31128 -1.113282,0 0,0.670167 q 0.08057,-0.0275 0.161133,-0.0403 0.08057,-0.0147 0.161133,-0.0147 0.457764,0 0.725098,0.25085 0.267334,0.25086 0.267334,0.67932 0,0.44129 -0.274659,0.68665 -0.274658,0.24353 -0.774536,0.24353 -0.172119,0 -0.351562,-0.0293 -0.177613,-0.0293 -0.368042,-0.0879 l 0,-0.3717 q 0.164795,0.0897 0.340576,0.13366 0.175781,0.0439 0.371704,0.0439 0.316772,0 0.501709,-0.16663 0.184936,-0.16662 0.184936,-0.45227 0,-0.28564 -0.184936,-0.45227 -0.184937,-0.16662 -0.501709,-0.16662 -0.148315,0 -0.296631,0.033 -0.146484,0.0329 -0.300293,0.10253 l 0,-1.373287 z"
       style="font-size:3.75px"
       id="path24340" /></g><g
     style="font-style:normal;font-weight:normal;font-size:10px;line-height:125%;font-family:sans-serif;letter-spacing:0px;word-spacing:0px;fill:#000000;fill-opacity:1;stroke:none;stroke-width:1px;stroke-linecap:butt;stroke-linejoin:miter;stroke-opacity:1"
     id="text22083-40-0"><path
       d="m 84.265678,106.71188 0,2.12586 0.446778,0 q 0.565796,0 0.827636,-0.25635 0.263672,-0.25635 0.263672,-0.80933 0,-0.54931 -0.263672,-0.80383 -0.26184,-0.25635 -0.827636,-0.25635 l -0.446778,0 z m -0.369873,-0.30395 0.759888,0 q 0.794678,0 1.166382,0.33142 0.371704,0.32959 0.371704,1.03271 0,0.70679 -0.373535,1.03821 -0.373535,0.33142 -1.164551,0.33142 l -0.759888,0 0,-2.73376 z"
       style="font-size:3.75px"
       id="path24333" /><path
       d="m 87.830742,106.73019 -0.933838,1.45935 0.933838,0 0,-1.45935 z m -0.09705,-0.32226 0.465088,0 0,1.78161 0.390015,0 0,0.30762 -0.390015,0 0,0.64453 -0.368042,0 0,-0.64453 -1.234131,0 0,-0.35705 1.137085,-1.73218 z"
       style="font-size:3.75px"
       id="path24335" /></g><g
     style="font-style:normal;font-weight:normal;font-size:10px;line-height:125%;font-family:sans-serif;letter-spacing:0px;word-spacing:0px;fill:#000000;fill-opacity:1;stroke:none;stroke-width:1px;stroke-linecap:butt;stroke-linejoin:miter;stroke-opacity:1"
     id="text22083-3-8-7"><path
       d="m 84.3554,113.8604 0,2.12585 0.446777,0 q 0.565796,0 0.827637,-0.25635 0.263672,-0.25634 0.263672,-0.80932 0,-0.54932 -0.263672,-0.80384 -0.261841,-0.25634 -0.827637,-0.25634 l -0.446777,0 z m -0.369873,-0.30396 0.759888,0 q 0.794677,0 1.166382,0.33142 0.371704,0.32959 0.371704,1.03272 0,0.70679 -0.373535,1.03821 -0.373536,0.33142 -1.164551,0.33142 l -0.759888,0 0,-2.73377 z"
       style="font-size:3.75px"
       id="path24328" /><path
       d="m 88.024834,114.81621 q 0.265503,0.0568 0.413818,0.2362 0.150147,0.17945 0.150147,0.44312 0,0.40466 -0.278321,0.62622 -0.27832,0.22156 -0.791015,0.22156 -0.17212,0 -0.355225,-0.0348 -0.181274,-0.033 -0.375366,-0.10071 l 0,-0.35706 q 0.153808,0.0897 0.336914,0.1355 0.183105,0.0458 0.38269,0.0458 0.347901,0 0.529175,-0.13733 0.183106,-0.13733 0.183106,-0.39917 0,-0.2417 -0.170289,-0.3772 -0.168457,-0.13733 -0.470581,-0.13733 l -0.318603,0 0,-0.30395 0.333252,0 q 0.272827,0 0.41748,-0.10803 0.144654,-0.10987 0.144654,-0.31495 0,-0.21057 -0.150147,-0.32226 -0.148315,-0.11353 -0.426636,-0.11353 -0.151977,0 -0.325927,0.033 -0.173951,0.033 -0.382691,0.10254 l 0,-0.32959 q 0.210572,-0.0586 0.393677,-0.0879 0.184937,-0.0293 0.3479,-0.0293 0.421143,0 0.666504,0.19226 0.245362,0.19043 0.245362,0.51636 0,0.22705 -0.130005,0.38452 -0.130005,0.15564 -0.369873,0.21607 z"
       style="font-size:3.75px"
       id="path24330" /></g><g
     style="font-style:normal;font-weight:normal;font-size:10px;line-height:125%;font-family:sans-serif;letter-spacing:0px;word-spacing:0px;fill:#000000;fill-opacity:1;stroke:none;stroke-width:1px;stroke-linecap:butt;stroke-linejoin:miter;stroke-opacity:1"
     id="text22083-4-8-3"><path
       d="m 76.668633,120.64912 0,0.36071 q -0.210572,-0.1007 -0.397339,-0.15014 -0.186768,-0.0494 -0.360718,-0.0494 -0.302124,0 -0.466919,0.11719 -0.162964,0.11718 -0.162964,0.33325 0,0.18127 0.108032,0.27466 0.109864,0.0916 0.413819,0.14831 l 0.223388,0.0458 q 0.413819,0.0787 0.609742,0.27832 0.197753,0.19775 0.197753,0.531 0,0.39734 -0.267334,0.60242 -0.265502,0.20508 -0.780029,0.20508 -0.194092,0 -0.413818,-0.0439 -0.217896,-0.0439 -0.452271,-0.13 l 0,-0.38086 q 0.22522,0.12634 0.441284,0.19043 0.216065,0.0641 0.424805,0.0641 0.316773,0 0.488892,-0.12451 0.172119,-0.12452 0.172119,-0.35523 0,-0.20142 -0.124512,-0.31494 -0.12268,-0.11353 -0.404663,-0.17029 l -0.22522,-0.0439 q -0.413818,-0.0824 -0.598755,-0.25818 -0.184936,-0.17578 -0.184936,-0.48889 0,-0.36255 0.254517,-0.57129 0.256347,-0.20874 0.704956,-0.20874 0.19226,0 0.391845,0.0348 0.199585,0.0348 0.408326,0.10437 z"
       style="font-size:3.75px"
       id="path24315" /><path
       d="m 77.780083,120.86335 0,2.12585 0.446777,0 q 0.565796,0 0.827637,-0.25634 0.263672,-0.25635 0.263672,-0.80933 0,-0.54932 -0.263672,-0.80383 -0.261841,-0.25635 -0.827637,-0.25635 l -0.446777,0 z m -0.369873,-0.30396 0.759887,0 q 0.794678,0 1.166382,0.33143 0.371704,0.32959 0.371704,1.03271 0,0.70679 -0.373535,1.03821 -0.373535,0.33142 -1.164551,0.33142 l -0.759887,0 0,-2.73377 z"
       style="font-size:3.75px"
       id="path24317" /><path
       d="m 81.14373,120.92377 -0.501709,1.36048 1.005249,0 -0.50354,-1.36048 z m -0.20874,-0.36438 0.419311,0 1.041871,2.73377 -0.384522,0 -0.249023,-0.70129 -1.2323,0 -0.249024,0.70129 -0.390014,0 1.043701,-2.73377 z"
       style="font-size:3.75px"
       id="path24319" /><path
       d="m 83.377617,120.55939 0.311279,0 -0.952148,3.08167 -0.31128,0 0.952149,-3.08167 z"
       style="font-size:3.75px"
       id="path24321" /><path
       d="m 84.430473,120.86335 0,2.12585 0.446778,0 q 0.565796,0 0.827636,-0.25634 0.263672,-0.25635 0.263672,-0.80933 0,-0.54932 -0.263672,-0.80383 -0.26184,-0.25635 -0.827636,-0.25635 l -0.446778,0 z m -0.369873,-0.30396 0.759888,0 q 0.794678,0 1.166382,0.33143 0.371704,0.32959 0.371704,1.03271 0,0.70679 -0.373535,1.03821 -0.373535,0.33142 -1.164551,0.33142 l -0.759888,0 0,-2.73377 z"
       style="font-size:3.75px"
       id="path24323" /><path
       d="m 87.297905,122.98188 1.290894,0 0,0.31128 -1.73584,0 0,-0.31128 q 0.210571,-0.2179 0.57312,-0.58411 0.36438,-0.36804 0.457763,-0.47424 0.177613,-0.19958 0.247193,-0.33691 0.07141,-0.13916 0.07141,-0.27283 0,-0.2179 -0.153809,-0.35523 -0.151977,-0.13732 -0.397338,-0.13732 -0.173951,0 -0.368042,0.0604 -0.192261,0.0604 -0.411988,0.18311 l 0,-0.37354 q 0.223389,-0.0897 0.417481,-0.1355 0.194091,-0.0458 0.355224,-0.0458 0.424805,0 0.677491,0.2124 0.252685,0.2124 0.252685,0.56763 0,0.16845 -0.06409,0.32043 -0.06226,0.15015 -0.228882,0.35522 -0.04578,0.0531 -0.291137,0.30762 -0.245362,0.25269 -0.692139,0.70862 z"
       style="font-size:3.75px"
       id="path24325" /></g><g
     style="font-style:normal;font-weight:normal;font-size:10px;line-height:125%;font-family:sans-serif;letter-spacing:0px;word-spacing:0px;fill:#000000;fill-opacity:1;stroke:none;stroke-width:1px;stroke-linecap:butt;stroke-linejoin:miter;stroke-opacity:1"
     id="text22083-1-3-1"><path
       d="m 77.313164,127.79947 0,0.36072 q -0.210572,-0.10071 -0.397339,-0.15015 -0.186768,-0.0494 -0.360718,-0.0494 -0.302124,0 -0.466919,0.11719 -0.162964,0.11719 -0.162964,0.33325 0,0.18128 0.108033,0.27466 0.109863,0.0916 0.413818,0.14831 l 0.223389,0.0458 q 0.413818,0.0787 0.609741,0.27832 0.197754,0.19776 0.197754,0.53101 0,0.39734 -0.267334,0.60241 -0.265503,0.20508 -0.78003,0.20508 -0.194091,0 -0.413818,-0.0439 -0.217895,-0.044 -0.45227,-0.13001 l 0,-0.38086 q 0.225219,0.12635 0.441284,0.19043 0.216064,0.0641 0.424804,0.0641 0.316773,0 0.488892,-0.12451 0.172119,-0.12451 0.172119,-0.35523 0,-0.20141 -0.124512,-0.31494 -0.12268,-0.11352 -0.404663,-0.17029 l -0.225219,-0.0439 q -0.413819,-0.0824 -0.598755,-0.25818 -0.184937,-0.17578 -0.184937,-0.48889 0,-0.36255 0.254517,-0.57129 0.256347,-0.20874 0.704956,-0.20874 0.192261,0 0.391846,0.0348 0.199585,0.0348 0.408325,0.10437 z"
       style="font-size:3.75px"
       id="path24302" /><path
       d="m 80.10186,127.92032 0,0.39001 q -0.186768,-0.17395 -0.39917,-0.26001 -0.210571,-0.0861 -0.448608,-0.0861 -0.46875,0 -0.717774,0.28748 -0.249023,0.28564 -0.249023,0.82764 0,0.54016 0.249023,0.82763 0.249024,0.28565 0.717774,0.28565 0.238037,0 0.448608,-0.0861 0.212402,-0.0861 0.39917,-0.26001 l 0,0.38635 q -0.194092,0.13184 -0.411987,0.19775 -0.216065,0.0659 -0.457764,0.0659 -0.620727,0 -0.977783,-0.37903 -0.357056,-0.38086 -0.357056,-1.0382 0,-0.65918 0.357056,-1.03821 0.357056,-0.38086 0.977783,-0.38086 0.245361,0 0.461426,0.0659 0.217895,0.0641 0.408325,0.19409 z"
       style="font-size:3.75px"
       id="path24304" /><path
       d="m 80.676811,127.70975 0.369873,0 0,2.42248 1.331177,0 0,0.31128 -1.70105,0 0,-2.73376 z"
       style="font-size:3.75px"
       id="path24306" /><path
       d="m 83.34832,127.70975 0.311279,0 -0.952148,3.08166 -0.311279,0 0.952148,-3.08166 z"
       style="font-size:3.75px"
       id="path24308" /><path
       d="m 84.401176,128.0137 0,2.12586 0.446778,0 q 0.565796,0 0.827637,-0.25635 0.263671,-0.25635 0.263671,-0.80933 0,-0.54931 -0.263671,-0.80383 -0.261841,-0.25635 -0.827637,-0.25635 l -0.446778,0 z m -0.369873,-0.30395 0.759888,0 q 0.794678,0 1.166382,0.33142 0.371704,0.32959 0.371704,1.03271 0,0.70679 -0.373535,1.03821 -0.373535,0.33142 -1.164551,0.33142 l -0.759888,0 0,-2.73376 z"
       style="font-size:3.75px"
       id="path24310" /><path
       d="m 87.014091,130.13223 0.604249,0 0,-2.08557 -0.657349,0.13184 0,-0.33692 0.653686,-0.13183 0.369873,0 0,2.42248 0.604249,0 0,0.31128 -1.574708,0 0,-0.31128 z"
       style="font-size:3.75px"
       id="path24312" /></g><g
     style="font-style:normal;font-weight:normal;font-size:10px;line-height:125%;font-family:sans-serif;letter-spacing:0px;word-spacing:0px;fill:#000000;fill-opacity:1;stroke:none;stroke-width:1px;stroke-linecap:butt;stroke-linejoin:miter;stroke-opacity:1"
     id="text22083-3-1-5-8"><path
       d="m 84.304131,135.31145 0,2.12585 0.446777,0 q 0.565796,0 0.827637,-0.25635 0.263671,-0.25634 0.263671,-0.80932 0,-0.54932 -0.263671,-0.80384 -0.261841,-0.25634 -0.827637,-0.25634 l -0.446777,0 z m -0.369873,-0.30396 0.759887,0 q 0.794678,0 1.166382,0.33142 0.371704,0.32959 0.371704,1.03272 0,0.70678 -0.373535,1.03821 -0.373535,0.33142 -1.164551,0.33142 l -0.759887,0 0,-2.73377 z"
       style="font-size:3.75px"
       id="path24297" /><path
       d="m 87.643974,135.25102 q -0.285644,0 -0.430298,0.28198 -0.142822,0.28016 -0.142822,0.84412 0,0.56213 0.142822,0.84412 0.144654,0.28015 0.430298,0.28015 0.287476,0 0.430298,-0.28015 0.144653,-0.28199 0.144653,-0.84412 0,-0.56396 -0.144653,-0.84412 -0.142822,-0.28198 -0.430298,-0.28198 z m 0,-0.29297 q 0.459595,0 0.701294,0.36438 0.243531,0.36255 0.243531,1.05469 0,0.69031 -0.243531,1.05469 -0.241699,0.36255 -0.701294,0.36255 -0.459594,0 -0.703125,-0.36255 -0.241699,-0.36438 -0.241699,-1.05469 0,-0.69214 0.241699,-1.05469 0.243531,-0.36438 0.703125,-0.36438 z"
       style="font-size:3.75px"
       id="path24299" /></g><g
     style="font-style:normal;font-weight:normal;font-size:10px;line-height:125%;font-family:sans-serif;letter-spacing:0px;word-spacing:0px;fill:#000000;fill-opacity:1;stroke:none;stroke-width:1px;stroke-linecap:butt;stroke-linejoin:miter;stroke-opacity:1"
     id="text22083-4-9-5-4"><path
       d="m 83.833549,142.15967 2.312623,0 0,0.31128 -0.970459,0 0,2.42248 -0.371705,0 0,-2.42248 -0.970459,0 0,-0.31128 z"
       style="font-size:3.75px"
       id="path24292" /><path
       d="m 86.373222,142.15967 0.397339,0 0.679322,1.01623 0.682983,-1.01623 0.397339,0 -0.878906,1.31286 0.9375,1.4209 -0.397339,0 -0.769043,-1.16272 -0.774536,1.16272 -0.39917,0 0.975952,-1.45935 -0.851441,-1.27441 z"
       style="font-size:3.75px"
       id="path24294" /></g><g
     style="font-style:normal;font-weight:normal;font-size:10px;line-height:125%;font-family:sans-serif;letter-spacing:0px;word-spacing:0px;fill:#000000;fill-opacity:1;stroke:none;stroke-width:1px;stroke-linecap:butt;stroke-linejoin:miter;stroke-opacity:1"
     id="text22083-5-2-6"><path
       d="m 85.194023,150.76204 q 0.119019,0.0403 0.230713,0.17212 0.113525,0.13183 0.227051,0.36255 l 0.375366,0.74707 -0.397339,0 -0.349731,-0.7013 q -0.135498,-0.27465 -0.263672,-0.36438 -0.126343,-0.0897 -0.34607,-0.0897 l -0.402832,0 0,1.1554 -0.369873,0 0,-2.73377 0.834961,0 q 0.46875,0 0.699463,0.19593 0.230713,0.19592 0.230713,0.59143 0,0.25818 -0.120849,0.42846 -0.119019,0.17029 -0.347901,0.23621 z m -0.926514,-1.14807 0,0.97046 0.465088,0 q 0.267334,0 0.402832,-0.12268 0.137329,-0.12452 0.137329,-0.36438 0,-0.23987 -0.137329,-0.36072 -0.135498,-0.12268 -0.402832,-0.12268 l -0.465088,0 z"
       style="font-size:3.75px"
       id="path24287" /><path
       d="m 86.373222,149.31001 0.397339,0 0.679322,1.01624 0.682983,-1.01624 0.397339,0 -0.878906,1.31287 0.9375,1.4209 -0.397339,0 -0.769043,-1.16272 -0.774536,1.16272 -0.39917,0 0.975952,-1.45935 -0.851441,-1.27442 z"
       style="font-size:3.75px"
       id="path24289" /></g><g
     style="font-style:normal;font-weight:normal;font-size:10px;line-height:125%;font-family:sans-serif;letter-spacing:0px;word-spacing:0px;writing-mode:tb-rl;fill:#000000;fill-opacity:1;stroke:none;stroke-width:1px;stroke-linecap:butt;stroke-linejoin:miter;stroke-opacity:1"
     id="text22083-35"><path
       d="m 43.642147,18.879673 q 0.265503,0.05676 0.413818,0.236206 0.150147,0.179443 0.150147,0.443115 0,0.404663 -0.27832,0.626221 -0.278321,0.221558 -0.791016,0.221558 -0.172119,0 -0.355225,-0.03479 -0.181274,-0.03296 -0.375366,-0.100708 l 0,-0.357056 q 0.153809,0.08972 0.336914,0.135498 0.183106,0.04578 0.382691,0.04578 0.3479,0 0.529174,-0.137329 0.183106,-0.137329 0.183106,-0.39917 0,-0.241699 -0.170288,-0.377197 -0.168457,-0.137329 -0.470581,-0.137329 l -0.318604,0 0,-0.303955 0.333252,0 q 0.272827,0 0.417481,-0.108032 0.144653,-0.109864 0.144653,-0.314942 0,-0.210571 -0.150146,-0.322265 -0.148316,-0.113526 -0.426636,-0.113526 -0.151978,0 -0.325928,0.03296 -0.17395,0.03296 -0.38269,0.102539 l 0,-0.32959 q 0.210571,-0.05859 0.393676,-0.08789 0.184937,-0.0293 0.347901,-0.0293 0.421142,0 0.666504,0.192261 0.245361,0.190429 0.245361,0.516357 0,0.227051 -0.130005,0.384522 -0.130005,0.155639 -0.369873,0.216064 z"
       style="font-size:3.75px;writing-mode:tb-rl"
       id="path24468" /><path
       d="m 43.105648,24.718906 -1.043701,-2.733764 0.386352,0 0.866089,2.301635 0.86792,-2.301635 0.384522,0 -1.04187,2.733764 -0.419312,0 z"
       style="font-size:3.75px;writing-mode:tb-rl"
       id="path24470" /><path
       d="m 43.642147,27.610142 q 0.265503,0.05676 0.413818,0.236206 0.150147,0.179443 0.150147,0.443115 0,0.404663 -0.27832,0.626221 -0.278321,0.221557 -0.791016,0.221557 -0.172119,0 -0.355225,-0.03479 -0.181274,-0.03296 -0.375366,-0.100708 l 0,-0.357055 q 0.153809,0.08972 0.336914,0.135498 0.183106,0.04578 0.382691,0.04578 0.3479,0 0.529174,-0.137329 0.183106,-0.137329 0.183106,-0.39917 0,-0.241699 -0.170288,-0.377197 -0.168457,-0.137329 -0.470581,-0.137329 l -0.318604,0 0,-0.303955 0.333252,0 q 0.272827,0 0.417481,-0.108033 0.144653,-0.109863 0.144653,-0.314941 0,-0.210571 -0.150146,-0.322266 -0.148316,-0.113525 -0.426636,-0.113525 -0.151978,0 -0.325928,0.03296 -0.17395,0.03296 -0.38269,0.102539 l 0,-0.32959 q 0.210571,-0.05859 0.393676,-0.08789 0.184937,-0.0293 0.347901,-0.0293 0.421142,0 0.666504,0.19226 0.245361,0.19043 0.245361,0.516358 0,0.227051 -0.130005,0.384521 -0.130005,0.15564 -0.369873,0.216065 z"
       style="font-size:3.75px;writing-mode:tb-rl"
       id="path24472" /></g><g
     style="font-style:normal;font-weight:normal;font-size:10px;line-height:125%;font-family:sans-serif;letter-spacing:0px;word-spacing:0px;writing-mode:tb-rl;fill:#000000;fill-opacity:1;stroke:none;stroke-width:1px;stroke-linecap:butt;stroke-linejoin:miter;stroke-opacity:1"
     id="text22083-35-7"><path
       d="m 50.631264,17.709629 0,0.360718 q -0.210572,-0.100708 -0.397339,-0.150147 -0.186768,-0.04944 -0.360718,-0.04944 -0.302124,0 -0.466919,0.117187 -0.162964,0.117188 -0.162964,0.333252 0,0.181275 0.108033,0.274659 0.109863,0.09155 0.413818,0.148315 l 0.223389,0.04578 q 0.413818,0.07874 0.609741,0.278321 0.197754,0.197754 0.197754,0.531005 0,0.397339 -0.267334,0.602417 -0.265503,0.205079 -0.78003,0.205079 -0.194091,0 -0.413818,-0.04395 -0.217895,-0.04395 -0.45227,-0.130005 l 0,-0.380859 q 0.225219,0.126343 0.441284,0.19043 0.216064,0.06409 0.424804,0.06409 0.316773,0 0.488892,-0.124512 0.172119,-0.124512 0.172119,-0.355225 0,-0.201416 -0.124512,-0.314941 -0.12268,-0.113525 -0.404663,-0.170288 l -0.225219,-0.04395 q -0.413819,-0.0824 -0.598755,-0.258179 -0.184937,-0.175781 -0.184937,-0.488892 0,-0.362549 0.254517,-0.571289 0.256347,-0.20874 0.704956,-0.20874 0.192261,0 0.391846,0.03479 0.199584,0.03479 0.408325,0.10437 z"
       style="font-size:3.75px;writing-mode:tb-rl"
       id="path24461" /><path
       d="m 50.918739,22.195713 0,0.390015 q -0.186767,-0.173951 -0.39917,-0.26001 -0.210571,-0.08606 -0.448608,-0.08606 -0.46875,0 -0.717773,0.287476 -0.249024,0.285644 -0.249024,0.827637 0,0.540161 0.249024,0.827636 0.249023,0.285645 0.717773,0.285645 0.238037,0 0.448608,-0.08606 0.212403,-0.08606 0.39917,-0.260009 l 0,0.386352 q -0.194091,0.131836 -0.411987,0.197754 -0.216064,0.06592 -0.457764,0.06592 -0.620727,0 -0.977783,-0.379028 -0.357056,-0.38086 -0.357056,-1.038208 0,-0.65918 0.357056,-1.038208 0.357056,-0.38086 0.977783,-0.38086 0.245362,0 0.461426,0.06592 0.217896,0.06409 0.408325,0.194092 z"
       style="font-size:3.75px;writing-mode:tb-rl"
       id="path24463" /><path
       d="m 49.138954,26.350376 0.369873,0 0,2.422485 1.331177,0 0,0.31128 -1.70105,0 0,-2.733765 z"
       style="font-size:3.75px;writing-mode:tb-rl"
       id="path24465" /></g><g
     style="font-style:normal;font-weight:normal;font-size:10px;line-height:125%;font-family:sans-serif;letter-spacing:0px;word-spacing:0px;writing-mode:tb-rl;fill:#000000;fill-opacity:1;stroke:none;stroke-width:1px;stroke-linecap:butt;stroke-linejoin:miter;stroke-opacity:1"
     id="text22083-35-3"><path
       d="m 63.608829,19.963657 0,-0.734253 -0.604248,0 0,-0.303955 0.970459,0 0,1.173706 q -0.214233,0.151978 -0.472412,0.230713 -0.258178,0.07691 -0.551147,0.07691 -0.640869,0 -1.003418,-0.373536 -0.360718,-0.375366 -0.360718,-1.043701 0,-0.670166 0.360718,-1.043701 0.362549,-0.375366 1.003418,-0.375366 0.267334,0 0.507202,0.06592 0.241699,0.06592 0.444946,0.194092 l 0,0.393676 q -0.205078,-0.17395 -0.435791,-0.26184 -0.230713,-0.08789 -0.485229,-0.08789 -0.501709,0 -0.754395,0.280151 -0.250854,0.280152 -0.250854,0.834961 0,0.552979 0.250854,0.83313 0.252686,0.280152 0.754395,0.280152 0.195923,0 0.349731,-0.03296 0.153809,-0.03479 0.276489,-0.106202 z"
       style="font-size:3.75px;writing-mode:tb-rl"
       id="path24454" /><path
       d="m 61.796085,21.985142 0.498047,0 1.212158,2.286987 0,-2.286987 0.358887,0 0,2.733764 -0.498047,0 -1.212158,-2.286987 0,2.286987 -0.358887,0 0,-2.733764 z"
       style="font-size:3.75px;writing-mode:tb-rl"
       id="path24456" /><path
       d="m 62.125675,26.654331 0,2.125855 0.446778,0 q 0.565795,0 0.827636,-0.256348 0.263672,-0.256348 0.263672,-0.809326 0,-0.549317 -0.263672,-0.803833 -0.261841,-0.256348 -0.827636,-0.256348 l -0.446778,0 z m -0.369873,-0.303955 0.759888,0 q 0.794678,0 1.166382,0.331421 0.371704,0.32959 0.371704,1.032715 0,0.706787 -0.373535,1.038208 -0.373536,0.331421 -1.164551,0.331421 l -0.759888,0 0,-2.733765 z"
       style="font-size:3.75px;writing-mode:tb-rl"
       id="path24458" /></g><g
     style="font-style:normal;font-weight:normal;font-size:10px;line-height:125%;font-family:sans-serif;letter-spacing:0px;word-spacing:0px;writing-mode:tb-rl;fill:#000000;fill-opacity:1;stroke:none;stroke-width:1px;stroke-linecap:butt;stroke-linejoin:miter;stroke-opacity:1"
     id="text22083-35-7-0"><path
       d="m 57.133324,17.709629 0,0.360718 q -0.210572,-0.100708 -0.397339,-0.150147 -0.186768,-0.04944 -0.360718,-0.04944 -0.302124,0 -0.466919,0.117187 -0.162964,0.117188 -0.162964,0.333252 0,0.181275 0.108032,0.274659 0.109864,0.09155 0.413819,0.148315 l 0.223388,0.04578 q 0.413819,0.07874 0.609742,0.278321 0.197754,0.197754 0.197754,0.531005 0,0.397339 -0.267334,0.602417 -0.265503,0.205079 -0.78003,0.205079 -0.194091,0 -0.413818,-0.04395 -0.217896,-0.04395 -0.452271,-0.130005 l 0,-0.380859 q 0.22522,0.126343 0.441285,0.19043 0.216064,0.06409 0.424804,0.06409 0.316773,0 0.488892,-0.124512 0.172119,-0.124512 0.172119,-0.355225 0,-0.201416 -0.124512,-0.314941 -0.12268,-0.113525 -0.404663,-0.170288 l -0.225219,-0.04395 q -0.413819,-0.0824 -0.598755,-0.258179 -0.184937,-0.175781 -0.184937,-0.488892 0,-0.362549 0.254517,-0.571289 0.256347,-0.20874 0.704956,-0.20874 0.192261,0 0.391845,0.03479 0.199585,0.03479 0.408326,0.10437 z"
       style="font-size:3.75px;writing-mode:tb-rl"
       id="path24447" /><path
       d="m 55.644676,22.289097 0,2.125854 0.446778,0 q 0.565795,0 0.827636,-0.256347 0.263672,-0.256348 0.263672,-0.809327 0,-0.549316 -0.263672,-0.803833 -0.261841,-0.256347 -0.827636,-0.256347 l -0.446778,0 z m -0.369873,-0.303955 0.759888,0 q 0.794678,0 1.166382,0.331421 0.371704,0.329589 0.371704,1.032714 0,0.706788 -0.373535,1.038209 -0.373536,0.33142 -1.164551,0.33142 l -0.759888,0 0,-2.733764 z"
       style="font-size:3.75px;writing-mode:tb-rl"
       id="path24449" /><path
       d="m 56.316673,26.714756 -0.501709,1.360474 1.005249,0 -0.50354,-1.360474 z m -0.20874,-0.36438 0.419312,0 1.04187,2.733765 -0.384522,0 -0.249023,-0.701294 -1.2323,0 -0.249023,0.701294 -0.390015,0 1.043701,-2.733765 z"
       style="font-size:3.75px;writing-mode:tb-rl"
       id="path24451" /></g><line
     style="fill:none;stroke:#787878;stroke-width:0.24690001;stroke-linecap:round"
     y2="179.37988"
     x2="40.167156"
     y1="164.97987"
     x1="40.167156"
     id="connector86pin-4" /><line
     style="fill:none;stroke:#787878;stroke-width:0.24690001;stroke-linecap:round"
     y2="179.37988"
     x2="46.647041"
     y1="164.97987"
     x1="46.647041"
     id="connector87pin-5" /><line
     style="fill:none;stroke:#787878;stroke-width:0.24690001;stroke-linecap:round"
     y2="179.37988"
     x2="53.126926"
     y1="164.97987"
     x1="53.126926"
     id="connector90pin-7" /><line
     style="fill:none;stroke:#787878;stroke-width:0.24690001;stroke-linecap:round"
     y2="179.37988"
     x2="59.606815"
     y1="164.97987"
     x1="59.606815"
     id="connector90pin-4-0" /><g
     style="font-style:normal;font-weight:normal;font-size:10px;line-height:125%;font-family:sans-serif;letter-spacing:0px;word-spacing:0px;writing-mode:tb-rl;fill:#000000;fill-opacity:1;stroke:none;stroke-width:1px;stroke-linecap:butt;stroke-linejoin:miter;stroke-opacity:1"
     id="text22083-35-78"><path
       d="m 40.186958,150.93796 q 0.265503,0.0568 0.413819,0.2362 0.150146,0.17945 0.150146,0.44312 0,0.40466 -0.27832,0.62622 -0.27832,0.22156 -0.791016,0.22156 -0.172119,0 -0.355224,-0.0348 -0.181275,-0.033 -0.375367,-0.10071 l 0,-0.35706 q 0.153809,0.0897 0.336914,0.1355 0.183106,0.0458 0.382691,0.0458 0.3479,0 0.529175,-0.13733 0.183105,-0.13733 0.183105,-0.39917 0,-0.2417 -0.170288,-0.3772 -0.168457,-0.13733 -0.470581,-0.13733 l -0.318603,0 0,-0.30395 0.333251,0 q 0.272828,0 0.417481,-0.10803 0.144653,-0.10987 0.144653,-0.31495 0,-0.21057 -0.150146,-0.32226 -0.148316,-0.11353 -0.426636,-0.11353 -0.151978,0 -0.325928,0.033 -0.17395,0.033 -0.38269,0.10254 l 0,-0.32959 q 0.210571,-0.0586 0.393677,-0.0879 0.184936,-0.0293 0.3479,-0.0293 0.421143,0 0.666504,0.19226 0.245361,0.19043 0.245361,0.51636 0,0.22705 -0.130005,0.38452 -0.130005,0.15564 -0.369873,0.21607 z"
       style="font-size:3.75px;writing-mode:tb-rl"
       id="path24280" /><path
       d="m 39.650459,156.77719 -1.043701,-2.73376 0.386353,0 0.866089,2.30163 0.867919,-2.30163 0.384522,0 -1.04187,2.73376 -0.419312,0 z"
       style="font-size:3.75px;writing-mode:tb-rl"
       id="path24282" /><path
       d="m 40.186958,159.66843 q 0.265503,0.0568 0.413819,0.2362 0.150146,0.17945 0.150146,0.44312 0,0.40466 -0.27832,0.62622 -0.27832,0.22156 -0.791016,0.22156 -0.172119,0 -0.355224,-0.0348 -0.181275,-0.033 -0.375367,-0.10071 l 0,-0.35706 q 0.153809,0.0897 0.336914,0.1355 0.183106,0.0458 0.382691,0.0458 0.3479,0 0.529175,-0.13733 0.183105,-0.13733 0.183105,-0.39917 0,-0.2417 -0.170288,-0.3772 -0.168457,-0.13733 -0.470581,-0.13733 l -0.318603,0 0,-0.30395 0.333251,0 q 0.272828,0 0.417481,-0.10804 0.144653,-0.10986 0.144653,-0.31494 0,-0.21057 -0.150146,-0.32226 -0.148316,-0.11353 -0.426636,-0.11353 -0.151978,0 -0.325928,0.033 -0.17395,0.033 -0.38269,0.10254 l 0,-0.32959 q 0.210571,-0.0586 0.393677,-0.0879 0.184936,-0.0293 0.3479,-0.0293 0.421143,0 0.666504,0.19226 0.245361,0.19043 0.245361,0.51636 0,0.22705 -0.130005,0.38452 -0.130005,0.15564 -0.369873,0.21607 z"
       style="font-size:3.75px;writing-mode:tb-rl"
       id="path24284" /></g><g
     style="font-style:normal;font-weight:normal;font-size:10px;line-height:125%;font-family:sans-serif;letter-spacing:0px;word-spacing:0px;writing-mode:tb-rl;fill:#000000;fill-opacity:1;stroke:none;stroke-width:1px;stroke-linecap:butt;stroke-linejoin:miter;stroke-opacity:1"
     id="text22083-35-7-9"><path
       d="m 46.891678,155.54855 q 0.119018,0.0403 0.230713,0.17212 0.113525,0.13184 0.227051,0.36255 l 0.375366,0.74707 -0.397339,0 -0.349732,-0.70129 q -0.135498,-0.27466 -0.263671,-0.36438 -0.126343,-0.0897 -0.34607,-0.0897 l -0.402832,0 0,1.15539 -0.369873,0 0,-2.73376 0.834961,0 q 0.46875,0 0.699463,0.19592 0.230713,0.19592 0.230713,0.59143 0,0.25818 -0.12085,0.42847 -0.119018,0.17029 -0.3479,0.2362 z m -0.926514,-1.14807 0,0.97046 0.465088,0 q 0.267334,0 0.402832,-0.12268 0.137329,-0.12451 0.137329,-0.36438 0,-0.23987 -0.137329,-0.36072 -0.135498,-0.12268 -0.402832,-0.12268 l -0.465088,0 z"
       style="font-size:3.75px;writing-mode:tb-rl"
       id="path24275" /><path
       d="m 45.481766,158.46176 0.397339,0 0.679321,1.01624 0.682983,-1.01624 0.397339,0 -0.878906,1.31287 0.9375,1.4209 -0.397339,0 -0.769043,-1.16272 -0.774536,1.16272 -0.39917,0 0.975952,-1.45935 -0.85144,-1.27442 z"
       style="font-size:3.75px;writing-mode:tb-rl"
       id="path24277" /></g><g
     style="font-style:normal;font-weight:normal;font-size:10px;line-height:125%;font-family:sans-serif;letter-spacing:0px;word-spacing:0px;writing-mode:tb-rl;fill:#000000;fill-opacity:1;stroke:none;stroke-width:1px;stroke-linecap:butt;stroke-linejoin:miter;stroke-opacity:1"
     id="text22083-35-3-9"><path
       d="m 60.692959,152.07504 0,-0.73425 -0.604248,0 0,-0.30396 0.970459,0 0,1.17371 q -0.214234,0.15198 -0.472412,0.23071 -0.258179,0.0769 -0.551148,0.0769 -0.640869,0 -1.003418,-0.37354 -0.360718,-0.37536 -0.360718,-1.0437 0,-0.67016 0.360718,-1.0437 0.362549,-0.37537 1.003418,-0.37537 0.267334,0 0.507202,0.0659 0.2417,0.0659 0.444947,0.19409 l 0,0.39368 q -0.205078,-0.17395 -0.435791,-0.26184 -0.230713,-0.0879 -0.48523,-0.0879 -0.501709,0 -0.754394,0.28015 -0.250855,0.28015 -0.250855,0.83496 0,0.55298 0.250855,0.83313 0.252685,0.28015 0.754394,0.28015 0.195923,0 0.349732,-0.033 0.153808,-0.0348 0.276489,-0.1062 z"
       style="font-size:3.75px;writing-mode:tb-rl"
       id="path24268" /><path
       d="m 58.880215,154.09653 0.498047,0 1.212158,2.28698 0,-2.28698 0.358886,0 0,2.73376 -0.498046,0 -1.212159,-2.28699 0,2.28699 -0.358886,0 0,-2.73376 z"
       style="font-size:3.75px;writing-mode:tb-rl"
       id="path24270" /><path
       d="m 59.209805,158.76572 0,2.12585 0.446777,0 q 0.565796,0 0.827637,-0.25635 0.263671,-0.25634 0.263671,-0.80932 0,-0.54932 -0.263671,-0.80384 -0.261841,-0.25634 -0.827637,-0.25634 l -0.446777,0 z m -0.369874,-0.30396 0.759888,0 q 0.794678,0 1.166382,0.33142 0.371704,0.32959 0.371704,1.03272 0,0.70678 -0.373535,1.03821 -0.373535,0.33142 -1.164551,0.33142 l -0.759888,0 0,-2.73377 z"
       style="font-size:3.75px;writing-mode:tb-rl"
       id="path24272" /></g><g
     style="font-style:normal;font-weight:normal;font-size:10px;line-height:125%;font-family:sans-serif;letter-spacing:0px;word-spacing:0px;writing-mode:tb-rl;fill:#000000;fill-opacity:1;stroke:none;stroke-width:1px;stroke-linecap:butt;stroke-linejoin:miter;stroke-opacity:1"
     id="text22083-35-7-0-6"><path
       d="m 52.069294,154.09653 2.312622,0 0,0.31128 -0.970459,0 0,2.42248 -0.371704,0 0,-2.42248 -0.970459,0 0,-0.31128 z"
       style="font-size:3.75px;writing-mode:tb-rl"
       id="path24263" /><path
       d="m 52.177326,158.46176 0.397339,0 0.679321,1.01624 0.682984,-1.01624 0.397339,0 -0.878907,1.31287 0.9375,1.4209 -0.397338,0 -0.769043,-1.16272 -0.774537,1.16272 -0.39917,0 0.975953,-1.45935 -0.851441,-1.27442 z"
       style="font-size:3.75px;writing-mode:tb-rl"
       id="path24265" /></g><g
     style="font-style:normal;font-weight:normal;font-size:10px;line-height:125%;font-family:sans-serif;text-align:center;letter-spacing:0px;word-spacing:0px;text-anchor:middle;fill:#000000;fill-opacity:1;stroke:none;stroke-width:1px;stroke-linecap:butt;stroke-linejoin:miter;stroke-opacity:1"
     id="text22486"><path
       d="m 19.874226,106.64341 0.996093,0 1.533203,6.16211 1.528321,-6.16211 1.108398,0 1.533203,6.16211 1.528321,-6.16211 1.000976,0 -1.831054,7.29004 -1.240235,0 -1.538086,-6.32813 -1.552734,6.32813 -1.240235,0 -1.826171,-7.29004 z"
       style=""
       id="path24235" /><path
       d="m 34.459187,110.97446 0,0.43946 -4.13086,0 q 0.05859,0.92773 0.556641,1.41601 0.502929,0.4834 1.396484,0.4834 0.517578,0 1.000977,-0.12695 0.488281,-0.12695 0.966797,-0.38086 l 0,0.84961 q -0.483399,0.20508 -0.991211,0.3125 -0.507813,0.10742 -1.030274,0.10742 -1.308594,0 -2.075195,-0.76172 -0.761719,-0.76172 -0.761719,-2.06055 0,-1.34277 0.722656,-2.1289 0.727539,-0.79102 1.958008,-0.79102 1.103516,0 1.743164,0.71289 0.644532,0.70801 0.644532,1.92871 z m -0.898438,-0.26367 q -0.0098,-0.7373 -0.415039,-1.17676 -0.400391,-0.43945 -1.064453,-0.43945 -0.751953,0 -1.206055,0.42481 -0.449219,0.4248 -0.517578,1.19629 l 3.203125,-0.005 z"
       style=""
       id="path24237" /><path
       d="m 40.191608,109.5145 q 0.336914,-0.60547 0.805664,-0.89355 0.46875,-0.28809 1.103516,-0.28809 0.854492,0 1.318359,0.60059 0.463868,0.5957 0.463868,1.69922 l 0,3.30078 -0.903321,0 0,-3.27149 q 0,-0.78613 -0.27832,-1.16699 -0.27832,-0.38086 -0.849609,-0.38086 -0.698243,0 -1.103516,0.46387 -0.405273,0.46387 -0.405273,1.26465 l 0,3.09082 -0.903321,0 0,-3.27149 q 0,-0.79101 -0.27832,-1.16699 -0.27832,-0.38086 -0.859375,-0.38086 -0.688477,0 -1.09375,0.46875 -0.405273,0.46387 -0.405273,1.25977 l 0,3.09082 -0.903321,0 0,-5.46875 0.903321,0 0,0.84961 q 0.307617,-0.50293 0.737304,-0.74219 0.429688,-0.23926 1.020508,-0.23926 0.595703,0 1.010742,0.30274 0.419922,0.30273 0.620117,0.8789 z"
       style=""
       id="path24239" /><path
       d="m 47.79903,109.09458 q -0.722656,0 -1.142578,0.56641 -0.419922,0.56152 -0.419922,1.54297 0,0.98144 0.415039,1.54785 0.419922,0.56152 1.147461,0.56152 0.717774,0 1.137696,-0.5664 0.419921,-0.56641 0.419921,-1.54297 0,-0.97168 -0.419921,-1.53809 -0.419922,-0.57129 -1.137696,-0.57129 z m 0,-0.76172 q 1.171875,0 1.840821,0.76172 0.668945,0.76172 0.668945,2.10938 0,1.34277 -0.668945,2.10937 -0.668946,0.76172 -1.840821,0.76172 -1.176758,0 -1.845703,-0.76172 -0.664062,-0.7666 -0.664062,-2.10937 0,-1.34766 0.664062,-2.10938 0.668945,-0.76172 1.845703,-0.76172 z"
       style=""
       id="path24241" /><path
       d="m 55.279499,108.62583 0,0.84961 q -0.380859,-0.19531 -0.791016,-0.29297 -0.410156,-0.0977 -0.849609,-0.0977 -0.668945,0 -1.005859,0.20507 -0.332032,0.20508 -0.332032,0.61524 0,0.3125 0.239258,0.49316 0.239258,0.17578 0.961914,0.33692 l 0.307617,0.0684 q 0.957032,0.20507 1.357422,0.58105 0.405274,0.37109 0.405274,1.04004 0,0.76172 -0.605469,1.20605 -0.600586,0.44434 -1.655273,0.44434 -0.439454,0 -0.917969,-0.0879 -0.473633,-0.083 -1.000977,-0.25391 l 0,-0.92773 q 0.498047,0.25879 0.981446,0.39062 0.483398,0.12696 0.957031,0.12696 0.634765,0 0.976562,-0.21485 0.341797,-0.21972 0.341797,-0.61523 0,-0.36621 -0.249023,-0.56152 -0.244141,-0.19532 -1.079102,-0.37598 l -0.3125,-0.0732 q -0.834961,-0.17578 -1.206054,-0.53711 -0.371094,-0.36621 -0.371094,-1.00098 0,-0.77148 0.546875,-1.19141 0.546875,-0.41992 1.552734,-0.41992 0.498047,0 0.9375,0.0733 0.439453,0.0732 0.810547,0.21972 z"
       style=""
       id="path24243" /><path
       d="m 32.740437,119.95396 0,5.66894 1.191406,0 q 1.508789,0 2.207031,-0.68359 0.703125,-0.6836 0.703125,-2.1582 0,-1.46485 -0.703125,-2.14356 -0.698242,-0.68359 -2.207031,-0.68359 l -1.191406,0 z m -0.986329,-0.81055 2.026368,0 q 2.11914,0 3.110351,0.88379 0.991211,0.87891 0.991211,2.75391 0,1.88476 -0.996094,2.76855 -0.996093,0.88379 -3.105468,0.88379 l -2.026368,0 0,-7.29004 z"
       style=""
       id="path24245" /><path
       d="m 39.70821,125.60337 1.611328,0 0,-5.56152 -1.75293,0.35156 0,-0.89844 1.743164,-0.35156 0.986329,0 0,6.45996 1.611328,0 0,0.83008 -4.199219,0 0,-0.83008 z"
       style=""
       id="path24247" /><path
       d="m 35.582233,135.51548 q 0.317383,0.10742 0.615235,0.45898 0.302734,0.35157 0.605469,0.9668 l 1.000976,1.99219 -1.05957,0 -0.932617,-1.87012 q -0.361329,-0.73242 -0.703125,-0.97168 -0.336914,-0.23926 -0.922852,-0.23926 l -1.074219,0 0,3.08106 -0.986328,0 0,-7.29004 2.226563,0 q 1.25,0 1.865234,0.52246 0.615234,0.52246 0.615234,1.57715 0,0.68848 -0.322265,1.14258 -0.317383,0.4541 -0.927735,0.62988 z m -2.470703,-3.06152 0,2.58789 1.240235,0 q 0.71289,0 1.074218,-0.32715 0.366211,-0.33203 0.366211,-0.97168 0,-0.63965 -0.366211,-0.96191 -0.361328,-0.32715 -1.074218,-0.32715 l -1.240235,0 z"
       style=""
       id="path24249" /><path
       d="m 40.015827,138.10337 3.442383,0 0,0.83008 -4.628906,0 0,-0.83008 q 0.561523,-0.58105 1.52832,-1.55762 0.97168,-0.98144 1.220703,-1.26464 0.473633,-0.53223 0.65918,-0.89844 0.19043,-0.3711 0.19043,-0.72754 0,-0.58106 -0.410157,-0.94727 -0.405273,-0.36621 -1.05957,-0.36621 -0.463867,0 -0.981445,0.16113 -0.512696,0.16114 -1.098633,0.48829 l 0,-0.9961 q 0.595703,-0.23926 1.113281,-0.36133 0.517578,-0.12207 0.947266,-0.12207 1.132812,0 1.80664,0.56641 0.673828,0.56641 0.673828,1.51367 0,0.44922 -0.170898,0.85449 -0.166016,0.40039 -0.610352,0.94727 -0.12207,0.1416 -0.776367,0.82031 -0.654297,0.67383 -1.845703,1.88965 z"
       style=""
       id="path24251" /></g><rect
     style="fill:#000000"
     height="0.69999999"
     width="0.69999999"
     y="54.886337"
     x="-0.26212904"
     id="connector0terminal-5" /><rect
     style="fill:#000000"
     height="0.69999999"
     width="0.699"
     y="28.383583"
     x="107.50168"
     id="connector63terminal-5" /><rect
     style="fill:#000000"
     height="0.69999999"
     width="0.699"
     y="35.583584"
     x="107.50168"
     id="connector64terminal-5" /><rect
     id="rect3709-6"
     x="107.17353"
     y="142.90709"
     width="0.699"
     height="0.69999999"
     style="fill:#000000" /><rect
     id="rect3713-0"
     x="107.17353"
     y="150.10709"
     width="0.699"
     height="0.69999999"
     style="fill:#000000" /><rect
     id="rect3719-6"
     x="107.17353"
     y="150.10709"
     width="0.699"
     height="0.69999999"
     style="fill:#000000" /><rect
     id="rect3713-0-2"
     x="59.263981"
     y="178.99371"
     width="0.699"
     height="0.69999999"
     style="fill:#000000" /><rect
     id="rect3719-6-6"
     x="59.263981"
     y="178.99371"
     width="0.699"
     height="0.69999999"
     style="fill:#000000" /><rect
     id="rect3713-0-9"
     x="52.701027"
     y="178.99371"
     width="0.699"
     height="0.69999999"
     style="fill:#000000" /><rect
     id="rect3719-6-9"
     x="52.701027"
     y="178.99371"
     width="0.699"
     height="0.69999999"
     style="fill:#000000" /><rect
     id="rect3713-0-2-2"
     x="46.356842"
     y="178.99371"
     width="0.699"
     height="0.69999999"
     style="fill:#000000" /><rect
     id="rect3719-6-6-9"
     x="46.356842"
     y="178.99371"
     width="0.699"
     height="0.69999999"
     style="fill:#000000" /><rect
     id="rect3713-0-9-6"
     x="39.793888"
     y="178.99371"
     width="0.699"
     height="0.69999999"
     style="fill:#000000" /><rect
     id="rect3719-6-9-5"
     x="39.793888"
     y="178.99371"
     width="0.699"
     height="0.69999999"
     style="fill:#000000" /><rect
     id="rect3713-0-2-5"
     x="62.217312"
     y="-0.28426397"
     width="0.699"
     height="0.69999999"
     style="fill:#000000" /><rect
     id="rect3719-6-6-3"
     x="62.217312"
     y="-0.28426397"
     width="0.699"
     height="0.69999999"
     style="fill:#000000" /><rect
     id="rect3713-0-9-8"
     x="55.654354"
     y="-0.28426397"
     width="0.699"
     height="0.69999999"
     style="fill:#000000" /><rect
     id="rect3719-6-9-6"
     x="55.654354"
     y="-0.28426397"
     width="0.699"
     height="0.69999999"
     style="fill:#000000" /><rect
     id="rect3713-0-2-2-7"
     x="49.310169"
     y="-0.28426397"
     width="0.699"
     height="0.69999999"
     style="fill:#000000" /><rect
     id="rect3719-6-6-9-3"
     x="49.310169"
     y="-0.28426397"
     width="0.699"
     height="0.69999999"
     style="fill:#000000" /><rect
     id="rect3713-0-9-6-6"
     x="42.747215"
     y="-0.28426397"
     width="0.699"
     height="0.69999999"
     style="fill:#000000" /><rect
     id="rect3719-6-9-5-0"
     x="42.747215"
     y="-0.28426397"
     width="0.699"
     height="0.69999999"
     style="fill:#000000" /></svg>